<svg width="24" height="24" fill="none" xmlns="http://www.w3.org/2000/svg"><path d="M12 9.277a2.723 2.723 0 100 5.446 2.723 2.723 0 000-5.446z" fill="#fff"/><path d="M15.204 5.064H8.796a3.737 3.737 0 00-3.732 3.732v6.408a3.737 3.737 0 003.732 3.732h6.408a3.737 3.737 0 003.732-3.732V8.796a3.737 3.737 0 00-3.732-3.732zM12 16.162a4.162 4.162 0 110-8.324 4.162 4.162 0 010 8.324zm4.573-7.693a1.028 1.028 0 110-2.056 1.028 1.028 0 010 2.057z" fill="#fff"/><path d="M23.273 5.987a6.922 6.922 0 00-.112-1.213c-.093-.49-.224-.966-.458-1.408a4.89 4.89 0 00-.94-1.254A4.662 4.662 0 0019.71.941c-.712-.192-1.44-.233-2.17-.232a.022.022 0 01-.004-.01H6.46v.01c-.415.008-.831.005-1.244.056a5.926 5.926 0 00-1.328.298A4.68 4.68 0 002.124 2.22a4.663 4.663 0 00-1.18 2.06c-.189.707-.23 1.427-.23 2.153l-.008 11.12c.013.502.017 1.008.102 1.505.09.528.218 1.042.463 1.521.325.642.79 1.204 1.358 1.645.406.324.866.573 1.359.737.726.234 1.474.324 2.234.328.474.003.948.015 1.422.013 3.444-.014 6.887.025 10.331-.021.455-.01.908-.058 1.355-.144a4.589 4.589 0 002.27-1.105c.757-.676 1.269-1.502 1.5-2.5.15-.653.188-1.315.195-1.978v-.133c0-.052-.02-11.285-.022-11.434zm-2.898 9.216a5.177 5.177 0 01-5.171 5.172H8.796a5.177 5.177 0 01-5.171-5.171V8.796a5.178 5.178 0 015.171-5.171h6.408a5.178 5.178 0 015.171 5.171v6.408z" fill="#fff"/></svg>