<svg width="24" height="24" fill="none" xmlns="http://www.w3.org/2000/svg"><path d="M17.374 8.28a.175.175 0 00.175-.176V7.29h.816a.175.175 0 100-.35h-.816v-.815a.175.175 0 00-.35 0v.815h-.815a.175.175 0 100 .35h.815v.815c0 .097.079.175.175.175zm-5.954 7.533a1.954 1.954 0 001.952-1.952 1.954 1.954 0 00-1.952-1.952 1.955 1.955 0 00-1.952 1.952c0 1.076.876 1.952 1.952 1.952zm0-3.53c.871 0 1.58.708 1.58 1.578a1.58 1.58 0 01-1.58 1.579 1.58 1.58 0 01-1.579-1.579c0-.87.709-1.578 1.58-1.578z" fill="#303030"/><path d="M13.553 13.006c.107.265.17.553.17.856a2.304 2.304 0 01-2.303 2.302 2.304 2.304 0 01-2.302-2.302c0-.303.062-.591.17-.856H5.46v4.535c0 .281.229.51.51.51h10.895a.516.516 0 00.516-.515v-4.53h-3.828zm3.317-3.337h-2.933l-.625-1.108a.495.495 0 00-.431-.253H9.96a.495.495 0 00-.431.252l-.626 1.11H5.965a.505.505 0 00-.505.504v2.483h4.008a2.296 2.296 0 011.952-1.096c.826 0 1.546.441 1.953 1.096h4.008V10.18a.51.51 0 00-.51-.51z" fill="#303030"/></svg>