<svg width="24" height="24" fill="none" xmlns="http://www.w3.org/2000/svg"><g clip-path="url(#clip0)"><path fill-rule="evenodd" clip-rule="evenodd" d="M21.068 0A2.934 2.934 0 0124 2.932v18.136A2.934 2.934 0 0121.068 24H8.87c.508-.857 1.154-2.07 1.41-3.06l.801-3.053c.419.799 1.643 1.475 2.944 1.475 3.875 0 6.666-3.563 6.666-7.99 0-4.243-3.463-7.418-7.92-7.418-5.542 0-8.486 3.72-8.486 7.773 0 1.884 1.003 4.23 2.607 4.976.243.113.373.063.43-.172.042-.178.259-1.05.356-1.456a.384.384 0 00-.089-.369c-.53-.643-.956-1.827-.956-2.931 0-2.833 2.146-5.575 5.8-5.575 3.156 0 5.366 2.15 5.366 5.226 0 3.475-1.755 5.882-4.038 5.882-1.261 0-2.205-1.042-1.902-2.32.362-1.528 1.064-3.175 1.064-4.278 0-.986-.53-1.81-1.626-1.81-1.289 0-2.324 1.334-2.324 3.12 0 1.138.384 1.908.384 1.908s-1.273 5.382-1.506 6.384c-.258 1.11-.157 2.671-.045 3.688H2.933A2.934 2.934 0 010 21.068V2.932A2.934 2.934 0 012.932 0h18.136z" fill="#fff"/></g><defs><clipPath id="clip0"><path fill="#fff" d="M0 0h24v24H0z"/></clipPath></defs></svg>