<svg width="24" height="24" fill="none" xmlns="http://www.w3.org/2000/svg"><g clip-path="url(#clip0)"><path d="M20.176 24H3.824A3.825 3.825 0 010 20.176V3.825A3.824 3.824 0 013.824 0h16.352A3.824 3.824 0 0124 3.825v16.351A3.824 3.824 0 0120.176 24zm-2.268-5.283c.126 0 .201-.056.236-.176.041-.139.07-.27.1-.405.08-.369.133-.545.268-.566 1.653-.255 2.125-.602 2.23-.848a.312.312 0 00.026-.106.187.187 0 00-.156-.194c-2.54-.419-3.678-3.014-3.725-3.124l-.005-.009c-.155-.315-.186-.588-.09-.812.174-.41.742-.591 1.119-.71.092-.03.18-.058.248-.085.659-.26.793-.524.79-.7-.004-.187-.171-.366-.426-.456l-.006-.002a.809.809 0 00-.305-.058.639.639 0 00-.264.052c-.316.147-.603.227-.853.237-.33-.013-.475-.153-.493-.172.008-.155.018-.318.029-.485l.003-.052c.076-1.2.17-2.693-.21-3.545-1.14-2.554-3.559-2.752-4.273-2.752h-.042l-.313.003c-.713 0-3.127.198-4.265 2.751-.38.852-.286 2.343-.21 3.544.01.185.022.365.032.537-.02.02-.178.172-.541.172-.263 0-.567-.08-.905-.238a.484.484 0 00-.205-.041c-.286 0-.64.184-.69.449-.03.155.033.46.784.756.068.028.156.055.248.084.376.12.944.3 1.119.71.095.225.064.498-.091.813l-.004.01c-.048.11-1.186 2.705-3.726 3.123a.186.186 0 00-.155.194.32.32 0 00.025.106c.105.247.578.595 2.23.85.142.022.194.23.268.568.029.131.059.267.1.407.047.162.156.184.257.184.096 0 .223-.025.37-.053a4.85 4.85 0 01.992-.112c.233 0 .474.02.716.06.497.083.918.38 1.364.696.647.457 1.315.93 2.357.93.03 0 .06-.002.088-.004.044.002.089.003.134.003 1.042 0 1.71-.472 2.358-.93.446-.315.867-.612 1.363-.695.242-.04.483-.06.716-.06.4 0 .713.05.993.105.157.03.282.046.37.046h.02z" fill="#fff"/></g><defs><clipPath id="clip0"><path fill="#fff" d="M0 0h24v24H0z"/></clipPath></defs></svg>