<svg id="add_1_" data-name="add (1)" xmlns="http://www.w3.org/2000/svg" width="18.561" height="18.561" viewBox="0 0 18.561 18.561">
  <g id="Group_1902" data-name="Group 1902">
    <g id="Group_1901" data-name="Group 1901">
      <path id="Path_2110" data-name="Path 2110" d="M9.28,0a9.28,9.28,0,1,0,9.28,9.28A9.29,9.29,0,0,0,9.28,0Zm0,17.123A7.843,7.843,0,1,1,17.123,9.28,7.852,7.852,0,0,1,9.28,17.123Z" fill="#8ba9ee"/>
    </g>
  </g>
  <g id="Group_1904" data-name="Group 1904" transform="translate(4.967 4.903)">
    <g id="Group_1903" data-name="Group 1903">
      <path id="Path_2111" data-name="Path 2111" d="M144.929,138.832h-2.875v-2.875a.719.719,0,0,0-1.438,0v2.875h-2.875a.719.719,0,1,0,0,1.438h2.875v2.875a.719.719,0,1,0,1.438,0V140.27h2.875a.719.719,0,0,0,0-1.438Z" transform="translate(-137.022 -135.238)" fill="#8ba9ee"/>
    </g>
  </g>
</svg>
