<svg xmlns="http://www.w3.org/2000/svg" width="60" height="57" viewBox="0 0 60 57"><defs><style>.a{fill:#8ba9ee;}.b{fill:#fff;}</style></defs><g transform="translate(-1718 -985)"><rect class="a" width="60" height="57" rx="17" transform="translate(1718 985)"/><path class="b" d="M175.78,166.372a15.577,15.577,0,0,0-1.4-21.792,17.812,17.812,0,0,1-17.111,22.667c-.227,0,1.143.008-4.252-.025A15.516,15.516,0,0,0,164,171.76l14.467-.074a1.111,1.111,0,0,0,.774-1.9Z" transform="translate(1587.303 861.115)"/><path class="b" d="M15.572,31.143A15.569,15.569,0,1,0,3.791,25.755L.331,29.17a1.111,1.111,0,0,0,.774,1.9ZM8.951,10.061H22.266a1.11,1.11,0,0,1,0,2.219H8.951a1.11,1.11,0,0,1,0-2.219Zm0,4.438H22.266a1.11,1.11,0,0,1,0,2.219H8.951a1.11,1.11,0,0,1,0-2.219Zm-1.11,5.548a1.11,1.11,0,0,1,1.11-1.11H22.266a1.11,1.11,0,0,1,0,2.219H8.951a1.11,1.11,0,0,1-1.11-1.11Z" transform="translate(1729 995)"/></g></svg>