<svg xmlns="http://www.w3.org/2000/svg" width="782.571" height="633.303" viewBox="0 0 782.571 633.303"><defs><style>.a{fill:#e0e0e0;}.b{fill:#ebebeb;}.c{fill:#f5f5f5;}.d{fill:#263238;}.e{fill:#8d8c8c;}.f,.h{fill:#fff;}.g{fill:#fed638;}.h{opacity:0.7;}.i{fill:#8ba9ee;}.j{fill:#fafafa;}.k{fill:#d9eafd;}.l{fill:#efefef;}.m{fill:#455a64;}.n{fill:#b78876;}.o{fill:#aa6550;}.p{opacity:0.3;}.q{fill:#462847;}.r{fill:#ffbe9d;}.s{fill:#eb996e;}.t{opacity:0.78;}</style></defs><g transform="translate(0)"><g transform="translate(9.447 61.409)"><g transform="translate(19.75)"><g transform="translate(24.713 24.166)"><g transform="translate(27.791)"><rect class="a" width="15.966" height="71.549"/></g><g transform="translate(0 27.791)"><rect class="a" width="15.966" height="71.549" transform="translate(0 15.966) rotate(-90)"/></g></g><path class="a" d="M175.833,139.755a5.751,5.751,0,0,1-.113-.965c-.05-.7-.118-1.635-.2-2.828q-.061-.942-.136-2.082c-.084-.762-.251-1.588-.388-2.487a43.648,43.648,0,0,0-1.261-6.142,56.922,56.922,0,0,0-6.629-15.773A59.128,59.128,0,0,0,96.077,84.286,54.328,54.328,0,0,0,81.14,92.329a66.717,66.717,0,0,0-6.695,5.695,66.885,66.885,0,0,0-5.782,6.843,57.168,57.168,0,0,0-8.435,16.261,63.106,63.106,0,0,0-3.044,18.618,63.111,63.111,0,0,0,3.041,18.625,57.149,57.149,0,0,0,8.435,16.265,66.923,66.923,0,0,0,5.782,6.846,66.463,66.463,0,0,0,6.7,5.7,54.3,54.3,0,0,0,14.939,8.044,59.278,59.278,0,0,0,71.026-25.2,56.943,56.943,0,0,0,6.628-15.772,43.6,43.6,0,0,0,1.26-6.139c.137-.9.3-1.724.388-2.487q.075-1.14.136-2.082c.087-1.193.155-2.13.2-2.827a5.728,5.728,0,0,1,.113-.965,5.3,5.3,0,0,1,.016.966c-.019.7-.046,1.641-.08,2.842q-.034.949-.076,2.1c-.065.768-.212,1.6-.331,2.508a42.236,42.236,0,0,1-1.155,6.207,56.476,56.476,0,0,1-6.5,16.013A60.03,60.03,0,0,1,127.3,198.85a60.256,60.256,0,0,1-31.619-2.536,55.3,55.3,0,0,1-15.26-8.169,67.589,67.589,0,0,1-6.842-5.8,67.844,67.844,0,0,1-5.914-6.978,58.282,58.282,0,0,1-8.629-16.6,64.224,64.224,0,0,1-3.111-19.02,64.221,64.221,0,0,1,3.115-19.014,58.278,58.278,0,0,1,8.628-16.6,68.074,68.074,0,0,1,5.914-6.974,67.453,67.453,0,0,1,6.842-5.8A55.3,55.3,0,0,1,95.681,83.2,60.254,60.254,0,0,1,127.3,80.659a60.024,60.024,0,0,1,40.41,28.46,56.482,56.482,0,0,1,6.5,16.014,42.358,42.358,0,0,1,1.155,6.207c.119.907.267,1.74.331,2.509q.041,1.149.076,2.1c.034,1.2.061,2.14.08,2.842A5.319,5.319,0,0,1,175.833,139.755Z" transform="translate(-55.925 -79.642)"/></g><g transform="translate(0 191.555)"><path class="b" d="M44.35,249.891s-13.409,4.622.259,33.292S67.9,326.124,67.9,326.124s2.382,6.634-3.171,7.5-17.673-1.4-20.316,5.3c-2.743,6.945,2.173,13.7,12.348,19.782S88.731,378.938,90.7,380.224c1.93,1.264,3.817,4.371.128,5.572s-31.138,3.319-29.353,16.284,32.913,25.253,36.29,26.662,4.154,2.877,3.826,4.743-9.622,1.708-17.406,2.631-16.645,3.356-14.988,10.75,19.862,23.324,64.957,28.974l21.067,1.249,11.954-17.5c23.3-39.021,21.946-63.174,17.139-69.031s-12.18-.369-17.7,5.2-11.112,12.989-12.786,12.1-2.352-2.405-1.384-5.935,10.438-35.624,1.318-45.012-27.684,10.946-30.9,13.115-4.5-1.231-4.311-3.53c.2-2.342,2.464-28.231,3.931-39.992s-.831-19.795-7.993-21.907c-6.906-2.037-12.575,8.91-16.68,12.752s-7.867-2.119-7.867-2.119-5.328-16.365-19.515-44.782S44.084,250,44.084,250" transform="translate(-38.466 -248.971)"/><g transform="translate(18.08 26.616)"><path class="a" d="M154.079,478.991c-10.336-20.91-28.083-58.385-43.488-90.479s-29.368-61.119-39.6-82.08l-12.14-24.811-3.3-6.749c-.362-.757-.641-1.343-.843-1.762-.187-.4-.267-.611-.267-.611s.121.191.327.58c.215.414.515.99.9,1.734l3.406,6.694c2.953,5.817,7.164,14.264,12.328,24.722,10.336,20.91,24.373,49.916,39.772,82s33.084,69.6,43.314,90.56" transform="translate(-54.448 -272.499)"/></g><g transform="translate(22.765 93.807)"><path class="a" d="M58.59,331.9a6.831,6.831,0,0,1,1.46.449c.925.325,2.25.835,3.88,1.48,3.259,1.3,7.714,3.2,12.592,5.39l12.466,5.654,3.786,1.689a6.829,6.829,0,0,1,1.369.675,6.9,6.9,0,0,1-1.463-.439c-.925-.328-2.251-.837-3.876-1.5-3.246-1.328-7.674-3.29-12.551-5.481l-12.5-5.561-3.8-1.671A6.917,6.917,0,0,1,58.59,331.9Z" transform="translate(-58.59 -331.894)"/></g><g transform="translate(59.791 66.284)"><path class="a" d="M91.326,349.122c-.169-.066,3.354-9.423,7.867-20.9s8.308-20.726,8.477-20.659-3.353,9.421-7.867,20.9S91.494,349.189,91.326,349.122Z" transform="translate(-91.32 -307.565)"/></g><g transform="translate(81.224 125.97)"><path class="a" d="M110.268,392.541a7.081,7.081,0,0,1,.891-1.278l2.589-3.351c2.182-2.831,5.18-6.755,8.328-11.2s5.879-8.566,7.824-11.565c.916-1.412,1.689-2.6,2.307-3.552a7.174,7.174,0,0,1,.912-1.265,7.113,7.113,0,0,1-.692,1.4c-.484.877-1.206,2.133-2.134,3.665-1.847,3.067-4.513,7.241-7.681,11.7s-6.222,8.352-8.5,11.115c-1.146,1.377-2.085,2.48-2.756,3.223A7.118,7.118,0,0,1,110.268,392.541Z" transform="translate(-110.266 -360.325)"/></g><g transform="translate(44.939 152.848)"><path class="a" d="M78.191,384.107a6.044,6.044,0,0,1,1.439.063l3.894.414c3.284.379,7.816.947,12.815,1.614s9.522,1.308,12.79,1.8l3.867.621a6.117,6.117,0,0,1,1.406.317,6.125,6.125,0,0,1-1.44-.063l-3.894-.415c-3.284-.378-7.816-.946-12.816-1.613s-9.521-1.308-12.789-1.8l-3.867-.622A6.047,6.047,0,0,1,78.191,384.107Z" transform="translate(-78.191 -384.084)"/></g><g transform="translate(58.21 199.7)"><path class="a" d="M89.922,425.518a10.059,10.059,0,0,1,1.842.1l4.992.512c4.212.462,10.024,1.145,16.439,1.938s12.221,1.55,16.418,2.129l4.967.72a9.842,9.842,0,0,1,1.809.353,10.042,10.042,0,0,1-1.841-.1l-4.992-.514c-4.212-.462-10.025-1.144-16.442-1.938S100.9,427.17,96.7,426.59l-4.966-.719A9.893,9.893,0,0,1,89.922,425.518Z" transform="translate(-89.922 -425.5)"/></g><g transform="translate(103.604 163.361)"><path class="a" d="M130.051,435.034a11.366,11.366,0,0,1,1.087-1.648c.808-1.127,1.862-2.6,3.131-4.367,2.639-3.689,6.265-8.8,10.108-14.552s7.2-11.044,9.6-14.9c1.154-1.849,2.111-3.382,2.844-4.559a11.551,11.551,0,0,1,1.107-1.635,11.165,11.165,0,0,1-.888,1.765c-.609,1.114-1.514,2.713-2.667,4.669-2.3,3.916-5.592,9.261-9.452,15.02s-7.541,10.841-10.279,14.463c-1.373,1.808-2.5,3.26-3.3,4.246A11.4,11.4,0,0,1,130.051,435.034Z" transform="translate(-130.049 -393.377)"/></g></g><g transform="translate(595.576 203.014)"><path class="c" d="M606.376,471.306c-31.085-19.038-40.186-57.308-41.1-92.149-.153-5.816-1.16-11.9,1.293-17.154s8.686-9.127,14.03-7c4.432,1.769,6.613,6.669,9.275,10.67a34.01,34.01,0,0,0,14.4,12.179c3.812,1.695,8.455,2.592,11.982.36,4.839-3.065,5.012-10.016,4.628-15.788q-1.076-16.132-2.149-32.261c-.385-5.769-.757-11.663.707-17.249s5.125-10.915,10.523-12.785,12.379.887,13.881,6.467c.624,2.321.293,4.792.6,7.178s1.581,4.97,3.9,5.5c2.345.539,4.557-1.238,6.18-3.032,5.606-6.188,9.2-13.939,12.523-21.634s6.534-15.56,11.557-22.243,12.2-12.172,20.434-13.14,17.355,3.6,19.933,11.593c2.586,8.012-1.663,16.555-6.432,23.453a129.057,129.057,0,0,1-25.283,27.191c-1.741,1.4-3.629,2.916-4.2,5.1-1.021,3.924,2.855,7.526,6.731,8.561,4.389,1.174,9.031.446,13.564.7s9.529,1.949,11.488,6.1c2.719,5.758-1.842,12.239-6.452,16.583a110.586,110.586,0,0,1-31.528,20.828c-4.153,1.81-8.54,3.444-11.783,6.633s-5,8.5-2.685,12.444,7.705,4.927,12.1,3.832,8.233-3.748,12.375-5.6c7.753-3.473,18.029-3.544,23.525,3,3.611,4.3,4.284,10.563,2.918,16.036s-4.51,10.307-7.891,14.795c-11.812,15.683-27.364,28.674-45.382,36.165s-34.961,10.247-53.653,4.662" transform="translate(-564.938 -259.101)"/><g transform="translate(49.098 4.306)"><path class="a" d="M608.339,448.468c4.058-17.855,10.13-37.058,17.17-56.925l5.268-14.691c1.74-4.817,3.465-9.6,5.44-14.163a258.756,258.756,0,0,1,12.86-25.6c4.484-7.946,9.03-15.322,13.329-22.189,4.317-6.86,8.461-13.178,12.483-18.774a205.238,205.238,0,0,1,20.926-24.975c2.692-2.746,4.85-4.806,6.332-6.182l1.695-1.557a4.381,4.381,0,0,1,.6-.5,4,4,0,0,1-.527.583l-1.621,1.632c-1.431,1.427-3.542,3.534-6.186,6.319A217.076,217.076,0,0,0,675.5,296.57c-3.973,5.609-8.07,11.936-12.347,18.807s-8.775,14.264-13.225,22.2a261.4,261.4,0,0,0-12.753,25.529c-1.959,4.547-3.664,9.284-5.405,14.115s-3.483,9.727-5.259,14.684c-7.034,19.851-13.119,39-17.219,56.788" transform="translate(-608.339 -262.907)"/></g><g transform="translate(65.002 41.03)"><path class="a" d="M634.674,358.369a11.708,11.708,0,0,1-.713-2.429c-.4-1.577-.9-3.876-1.481-6.727-1.163-5.7-2.5-13.621-3.942-22.363s-2.888-16.628-4.135-22.293c-.615-2.834-1.136-5.123-1.517-6.7a11.539,11.539,0,0,1-.473-2.487,11.536,11.536,0,0,1,.871,2.376c.5,1.546,1.139,3.816,1.848,6.637,1.44,5.64,3.01,13.533,4.453,22.288,1.4,8.629,2.666,16.437,3.633,22.4.453,2.691.839,4.959,1.147,6.781A11.559,11.559,0,0,1,634.674,358.369Z" transform="translate(-622.398 -295.371)"/></g><g transform="translate(77.278 85.644)"><path class="a" d="M706.626,334.843a16.022,16.022,0,0,1-2.939.534c-1.893.284-4.636.681-8.008,1.279-6.754,1.144-16.026,3.051-26.165,5.6-10.137,2.57-19.212,5.287-25.719,7.441-3.263,1.054-5.879,1.979-7.691,2.606a16.032,16.032,0,0,1-2.853.886,15.835,15.835,0,0,1,2.706-1.278c1.771-.748,4.356-1.784,7.6-2.935,6.463-2.345,15.535-5.186,25.7-7.765a262.2,262.2,0,0,1,26.3-5.308c3.4-.5,6.166-.788,8.081-.945A15.916,15.916,0,0,1,706.626,334.843Z" transform="translate(-633.249 -334.808)"/></g><g transform="translate(6.838 95.918)"><path class="a" d="M614.073,436.419a3.83,3.83,0,0,1-.563-.874c-.387-.7-.86-1.566-1.431-2.609-1.233-2.269-2.931-5.6-4.975-9.746-4.093-8.285-9.389-19.909-15.056-32.813S581.2,365.809,577.281,357.45l-4.665-9.887c-.5-1.079-.916-1.968-1.255-2.7a3.848,3.848,0,0,1-.374-.974,3.884,3.884,0,0,1,.563.875l1.431,2.606c1.233,2.27,2.931,5.6,4.975,9.747,4.093,8.285,9.387,19.909,15.058,32.819s10.85,24.561,14.764,32.922c1.917,4.06,3.493,7.4,4.665,9.886.5,1.078.915,1.97,1.255,2.7A3.885,3.885,0,0,1,614.073,436.419Z" transform="translate(-570.982 -343.889)"/></g><g transform="translate(49.928 150.705)"><path class="a" d="M705.773,392.327a3.994,3.994,0,0,1-.955.463l-2.807,1.132c-2.593,1.018-6.094,2.39-10.353,4.059-8.742,3.431-20.762,8.307-34.036,13.712s-25.355,10.178-34.171,13.427c-4.408,1.627-7.986,2.906-10.477,3.74-1.153.378-2.1.689-2.874.944a3.9,3.9,0,0,1-1.027.259,4.055,4.055,0,0,1,.953-.465c.754-.3,1.681-.677,2.807-1.13l10.352-4.06c8.742-3.428,20.763-8.306,34.042-13.713s25.349-10.176,34.164-13.425c4.407-1.627,7.987-2.906,10.48-3.74,1.152-.378,2.1-.691,2.875-.944A3.866,3.866,0,0,1,705.773,392.327Z" transform="translate(-609.073 -392.319)"/></g></g></g><g transform="translate(0 505.005)"><path class="d" d="M812.686,472.063c0,.163-175.2.294-391.266.294-216.144,0-391.3-.131-391.3-.294s175.161-.3,391.3-.3C637.488,471.768,812.686,471.9,812.686,472.063Z" transform="translate(-30.115 -471.768)"/></g><g transform="translate(89.163 126.058)"><g transform="translate(22.024)"><rect class="e" width="563.541" height="372.664" rx="14.567"/></g><g transform="translate(0 348.596)"><g transform="translate(0 0)"><path class="e" d="M0,0H610.553a0,0,0,0,1,0,0V14.81a17.8,17.8,0,0,1-17.8,17.8H17.8A17.8,17.8,0,0,1,0,14.81V0A0,0,0,0,1,0,0Z"/></g></g><g transform="translate(37.151 14.806)"><rect class="d" width="531.711" height="314.709"/></g><g transform="translate(248.241 345.102)"><path class="d" d="M328.37,441.849l7.576,12.051h106.61l7.035-12.051Z" transform="translate(-328.37 -441.849)"/></g><g transform="translate(48.103 25.46)"><path class="b" d="M3.272,0H507.628A3.273,3.273,0,0,1,510.9,3.273v296.5a3.273,3.273,0,0,1-3.273,3.273H3.272A3.272,3.272,0,0,1,0,299.776V3.272A3.272,3.272,0,0,1,3.272,0Z"/></g><g transform="translate(47.879 49.205)"><path class="f" d="M662.381,461.129H151.256l.943-280.844H662.381Z" transform="translate(-151.256 -180.285)"/></g><g transform="translate(82.748 33.084)"><path class="d" d="M190.239,170.114a4.08,4.08,0,1,1-4.081-4.079A4.081,4.081,0,0,1,190.239,170.114Z" transform="translate(-182.079 -166.035)"/></g><g transform="translate(58.017 33.084)"><path class="d" d="M168.379,170.114a4.08,4.08,0,1,1-4.08-4.079A4.08,4.08,0,0,1,168.379,170.114Z" transform="translate(-160.218 -166.035)"/></g><g transform="translate(70.382 33.084)"><path class="d" d="M179.309,170.114a4.08,4.08,0,1,1-4.08-4.079A4.08,4.08,0,0,1,179.309,170.114Z" transform="translate(-171.148 -166.035)"/></g><g transform="translate(41.975 344.823)"><g transform="translate(0 0)"><path class="d" d="M666.521,441.971c0,.2-116.524.368-260.23.368-143.756,0-260.254-.164-260.254-.368s116.5-.368,260.254-.368C550,441.6,666.521,441.768,666.521,441.971Z" transform="translate(-146.037 -441.603)"/></g></g><g transform="translate(48.101 279.057)"><rect class="g" width="510.985" height="50.829" transform="translate(0 0)"/><path class="h" d="M0,0H510.985V50.829H0Z" transform="translate(0 0)"/></g><g transform="translate(336.226 283.019)"><g transform="translate(0 0)"><circle class="i" cx="18.873" cy="18.873" r="18.873" transform="matrix(0.161, -0.987, 0.987, 0.161, 0, 37.254)"/></g><g transform="translate(18.263 11.686)"><path class="f" d="M425.694,411.521a3.406,3.406,0,0,1-3.4-3.4V400.7a3.4,3.4,0,1,1,6.806,0v7.414A3.4,3.4,0,0,1,425.694,411.521Zm0-13.507A2.694,2.694,0,0,0,423,400.7v7.414a2.69,2.69,0,0,0,5.38,0V400.7A2.694,2.694,0,0,0,425.694,398.014Z" transform="translate(-422.29 -397.301)"/></g><g transform="translate(15.057 19.764)"><path class="f" d="M426.066,412.969a6.142,6.142,0,0,1-4.777-1.889c-2.167-2.395-1.818-6.157-1.8-6.316a.356.356,0,1,1,.709.069c0,.036-.331,3.614,1.625,5.772a5.459,5.459,0,0,0,4.246,1.652,5.711,5.711,0,0,0,4.3-1.651c2.084-2.17,1.963-5.757,1.962-5.793a.356.356,0,0,1,.343-.37.371.371,0,0,1,.37.342c.006.16.133,3.929-2.161,6.316A6.4,6.4,0,0,1,426.066,412.969Z" transform="translate(-419.456 -404.442)"/></g><g transform="translate(21.31 27.579)"><path class="f" d="M425.34,417.28a.357.357,0,0,1-.356-.356v-5.217a.356.356,0,1,1,.713,0v5.217A.358.358,0,0,1,425.34,417.28Z" transform="translate(-424.984 -411.35)"/></g></g><g transform="translate(236.007 283.019)"><g transform="translate(0 0)"><circle class="i" cx="18.873" cy="18.873" r="18.873" transform="matrix(0.161, -0.987, 0.987, 0.161, 0, 37.254)"/></g><g transform="translate(13.815 19.807)"><path class="f" d="M331.627,408.2a1.86,1.86,0,1,1,1.86-1.86A1.86,1.86,0,0,1,331.627,408.2Z" transform="translate(-329.767 -404.479)"/><path class="f" d="M336.744,408.2a1.86,1.86,0,1,1,1.861-1.86A1.86,1.86,0,0,1,336.744,408.2Z" transform="translate(-329.095 -404.479)"/><path class="f" d="M342.22,408.2a1.86,1.86,0,1,1,1.861-1.86A1.86,1.86,0,0,1,342.22,408.2Z" transform="translate(-328.377 -404.479)"/></g></g><g transform="translate(289.235 286.138)"><circle class="i" cx="18.548" cy="18.548" r="18.548"/><g transform="translate(11.856 12.736)"><path class="f" d="M380.127,401.667a3.2,3.2,0,0,0-4.8.974,1.925,1.925,0,0,0,.446,2.413c1.7,1.674,5.282,5.028,6.838,6.484a3.855,3.855,0,0,0,3.176,1.031,3.326,3.326,0,0,0,2.252-1.395c1.756-2.407-2.45-4.287-2.45-4.287l-1.839,1.931-4.287-4.136,1.879-2.074Z" transform="translate(-375.087 -400.986)"/></g></g><g transform="translate(504.207 59.784)"><path class="b" d="M573.862,228.085h0a19.224,19.224,0,0,1-19.224-19.223h0a19.224,19.224,0,0,1,19.224-19.225h0a19.224,19.224,0,0,1,19.224,19.225h0A19.223,19.223,0,0,1,573.862,228.085Z" transform="translate(-554.637 -189.637)"/><g transform="translate(12.213 13.373)"><path class="d" d="M571.776,207.45a3.065,3.065,0,1,0-1.862-.019,5.343,5.343,0,0,0-4.481,5.27h10.695A5.347,5.347,0,0,0,571.776,207.45Z" transform="translate(-565.433 -201.458)"/><g transform="translate(9.436 1.101)"><g transform="translate(2.462)"><path class="d" d="M576.391,208.236a.441.441,0,0,1-.441-.441v-4.921a.441.441,0,1,1,.882,0v4.921A.442.442,0,0,1,576.391,208.236Z" transform="translate(-575.95 -202.431)"/></g><g transform="translate(0 2.462)"><path class="d" d="M579.137,205.489h-4.922a.441.441,0,1,1,0-.882h4.922a.441.441,0,1,1,0,.882Z" transform="translate(-573.774 -204.607)"/></g></g></g></g><g transform="translate(48.101 49.132)"><path class="j" d="M274.618,461.065l-123.166-.585V180.221H274.618Z" transform="translate(-151.452 -180.221)"/><g transform="translate(122.87)"><path class="d" d="M260.361,458.789c-.163,0-.3-62.365-.3-139.277,0-76.939.131-139.291.294-139.291s.3,62.352.3,139.291C260.655,396.424,260.524,458.789,260.361,458.789Z" transform="translate(-260.066 -180.221)"/></g><g transform="translate(2.286 226.652)"><path class="a" d="M270.558,380.869c0,.163-26.212.294-58.54.294s-58.545-.131-58.545-.294,26.207-.294,58.545-.294S270.558,380.706,270.558,380.869Z" transform="translate(-153.473 -380.575)"/></g><g transform="translate(91.343 72.79)"><path class="a" d="M233.128,244.586v2.747h-.283v-2.5H232.2v-.25Z" transform="translate(-232.197 -244.562)"/><path class="a" d="M234.379,244.586v2.747H234.1v-2.5h-.647v-.25Z" transform="translate(-232.033 -244.562)"/><path class="a" d="M234.853,245.388a.208.208,0,0,1,.208-.213.211.211,0,0,1,.212.213.213.213,0,0,1-.212.215A.211.211,0,0,1,234.853,245.388Zm0,1.671a.208.208,0,0,1,.208-.212.21.21,0,0,1,.212.212.214.214,0,0,1-.212.216A.211.211,0,0,1,234.853,247.059Z" transform="translate(-231.848 -244.485)"/><path class="a" d="M237.476,247.084v.251H235.55v-.2l1.141-1.119c.31-.305.37-.49.37-.679,0-.318-.224-.514-.644-.514a.932.932,0,0,0-.75.305l-.2-.172a1.233,1.233,0,0,1,.973-.393c.558,0,.911.283.911.741a1.13,1.13,0,0,1-.451.86l-.934.919Z" transform="translate(-231.768 -244.565)"/><path class="a" d="M239.432,246.524c0,.467-.326.833-1,.833a1.421,1.421,0,0,1-.985-.354l.137-.223a1.192,1.192,0,0,0,.845.318c.466,0,.714-.228.714-.561,0-.354-.221-.574-.919-.574h-.585l.141-1.377h1.5v.25H238.03l-.094.876h.354C239.117,245.712,239.432,246.037,239.432,246.524Z" transform="translate(-231.507 -244.562)"/></g><g transform="translate(94.141 200.785)"><path class="a" d="M235.6,357.709v2.748h-.283v-2.5h-.647v-.251Z" transform="translate(-234.67 -357.709)"/><path class="a" d="M236.852,357.709v2.748h-.283v-2.5h-.648v-.251Z" transform="translate(-234.506 -357.709)"/><path class="a" d="M237.325,358.511a.208.208,0,0,1,.208-.212.211.211,0,0,1,.213.212.215.215,0,0,1-.213.216A.212.212,0,0,1,237.325,358.511Zm0,1.672a.208.208,0,0,1,.208-.212.211.211,0,0,1,.213.212.215.215,0,0,1-.213.216A.212.212,0,0,1,237.325,360.183Z" transform="translate(-234.321 -357.632)"/><path class="a" d="M240.4,359.734h-.549v.723h-.283v-.723h-1.55v-.2l1.456-1.821h.313l-1.4,1.774h1.192v-.636h.275v.636h.549Z" transform="translate(-234.231 -357.709)"/><path class="a" d="M242.213,359.648c0,.466-.327.831-1,.831a1.414,1.414,0,0,1-.984-.353l.137-.223a1.2,1.2,0,0,0,.844.317c.467,0,.714-.227.714-.561,0-.353-.219-.572-.919-.572h-.584l.14-1.378h1.5v.251h-1.256l-.094.876h.353C241.9,358.836,242.213,359.161,242.213,359.648Z" transform="translate(-233.94 -357.709)"/></g><g transform="translate(22.538 18.892)"><path class="b" d="M226.472,245.038H171.534l-.158-23.9a24.059,24.059,0,0,1,24.057-24.218h31.038a24.059,24.059,0,0,1,24.059,24.058h0A24.059,24.059,0,0,1,226.472,245.038Z" transform="translate(-171.375 -196.921)"/></g><g transform="translate(5.555 246.552)"><path class="a" d="M254.144,419.949H167.019a10.669,10.669,0,0,1-10.656-10.658v-.468a10.669,10.669,0,0,1,10.656-10.658h87.125A10.669,10.669,0,0,1,264.8,408.824v.468A10.669,10.669,0,0,1,254.144,419.949Zm-87.125-21.116a10,10,0,0,0-9.99,9.99v.468a10,10,0,0,0,9.99,9.991h87.125a10,10,0,0,0,9.99-9.991v-.468a10,10,0,0,0-9.99-9.99Z" transform="translate(-156.363 -398.166)"/><g transform="translate(92.891 5.147)"><path class="i" d="M249.307,408.131a5.415,5.415,0,1,1-5.415-5.415A5.415,5.415,0,0,1,249.307,408.131Z" transform="translate(-238.476 -402.716)"/></g><g transform="translate(94.797 8.026)"><path class="f" d="M243.53,411.141h-.012a.164.164,0,0,1-.148-.122l-.693-2.562-2.4-.851a.167.167,0,0,1,0-.314l5.655-2.019a.167.167,0,0,1,.209.224l-2.454,5.547A.167.167,0,0,1,243.53,411.141Zm-2.7-3.695,2.044.724a.163.163,0,0,1,.105.113l.593,2.192,2.106-4.76Z" transform="translate(-240.161 -405.261)"/><g transform="translate(2.487 0.001)"><path class="f" d="M242.525,408.494a.167.167,0,0,1-.112-.29l3.169-2.9a.167.167,0,1,1,.225.245l-3.169,2.9A.166.166,0,0,1,242.525,408.494Z" transform="translate(-242.359 -405.262)"/></g></g><g transform="translate(23.934 8.819)"><path class="d" d="M178.566,406.233H177.52v-.271h2.407v.271h-1.046v2.7h-.314Z" transform="translate(-177.52 -405.962)"/><path class="d" d="M181.848,406.616l-1.119,2.5c-.187.438-.424.579-.743.579a.77.77,0,0,1-.545-.2l.141-.225a.559.559,0,0,0,.408.17c.2,0,.335-.093.463-.373l.1-.218-1-2.232h.314l.843,1.9.842-1.9Z" transform="translate(-177.268 -405.876)"/><path class="d" d="M184.213,407.736a1.083,1.083,0,0,1-1.114,1.14.976.976,0,0,1-.851-.442v1.247h-.3v-3.062h.29v.442a.974.974,0,0,1,.863-.459A1.082,1.082,0,0,1,184.213,407.736Zm-.3,0a.835.835,0,1,0-.834.872A.823.823,0,0,0,183.911,407.736Z" transform="translate(-176.939 -405.878)"/><path class="d" d="M186.47,407.83H184.6a.828.828,0,0,0,.88.778.881.881,0,0,0,.684-.293l.171.2a1.183,1.183,0,0,1-2.037-.775,1.077,1.077,0,0,1,1.093-1.135,1.066,1.066,0,0,1,1.085,1.135C186.475,407.762,186.47,407.8,186.47,407.83ZM184.6,407.6h1.586a.795.795,0,0,0-1.586,0Z" transform="translate(-176.631 -405.878)"/><path class="d" d="M189.463,407.469v1.386h-.288v-.348a.841.841,0,0,1-.77.37c-.506,0-.817-.263-.817-.65,0-.345.222-.634.864-.634h.71v-.137c0-.382-.217-.59-.635-.59a1.141,1.141,0,0,0-.744.264l-.136-.225a1.415,1.415,0,0,1,.911-.3A.794.794,0,0,1,189.463,407.469Zm-.3.714v-.366h-.7c-.433,0-.574.171-.574.4,0,.26.208.422.566.422A.717.717,0,0,0,189.162,408.183Z" transform="translate(-176.199 -405.878)"/><path class="d" d="M194.648,407.558v1.3h-.3v-1.267c0-.472-.238-.715-.641-.715a.72.72,0,0,0-.749.808v1.174h-.3v-1.267c0-.472-.238-.715-.646-.715a.721.721,0,0,0-.749.808v1.174h-.3v-2.236h.29v.408a.9.9,0,0,1,.82-.425.8.8,0,0,1,.8.472.973.973,0,0,1,.885-.472A.844.844,0,0,1,194.648,407.558Z" transform="translate(-175.756 -405.878)"/><path class="d" d="M196.929,407.83h-1.871a.827.827,0,0,0,.88.778.881.881,0,0,0,.684-.293l.171.2a1.183,1.183,0,0,1-2.037-.775,1.077,1.077,0,0,1,1.093-1.135,1.066,1.066,0,0,1,1.085,1.135C196.934,407.762,196.929,407.8,196.929,407.83Zm-1.871-.225h1.586a.795.795,0,0,0-1.586,0Z" transform="translate(-175.258 -405.878)"/><path class="d" d="M196.952,408.6l.137-.239a1.346,1.346,0,0,0,.794.251c.425,0,.6-.145.6-.366,0-.584-1.45-.123-1.45-1.008,0-.367.314-.638.885-.638a1.516,1.516,0,0,1,.791.208l-.132.242a1.15,1.15,0,0,0-.658-.191c-.4,0-.584.157-.584.37,0,.6,1.451.149,1.451,1.008,0,.387-.341.638-.923.638A1.5,1.5,0,0,1,196.952,408.6Z" transform="translate(-174.969 -405.878)"/><path class="d" d="M198.791,408.6l.137-.239a1.346,1.346,0,0,0,.794.251c.426,0,.6-.145.6-.366,0-.584-1.45-.123-1.45-1.008,0-.367.314-.638.885-.638a1.514,1.514,0,0,1,.791.208l-.132.242a1.144,1.144,0,0,0-.658-.191c-.4,0-.584.157-.584.37,0,.6,1.451.149,1.451,1.008,0,.387-.341.638-.923.638A1.5,1.5,0,0,1,198.791,408.6Z" transform="translate(-174.728 -405.878)"/><path class="d" d="M202.615,407.469v1.386h-.288v-.348a.842.842,0,0,1-.77.37c-.506,0-.817-.263-.817-.65,0-.345.222-.634.863-.634h.71v-.137c0-.382-.217-.59-.634-.59a1.141,1.141,0,0,0-.744.264l-.136-.225a1.417,1.417,0,0,1,.911-.3A.794.794,0,0,1,202.615,407.469Zm-.3.714v-.366h-.7c-.433,0-.574.171-.574.4,0,.26.208.422.564.422A.715.715,0,0,0,202.313,408.183Z" transform="translate(-174.472 -405.878)"/><path class="d" d="M205.228,406.618v1.965a.982.982,0,0,1-1.119,1.119,1.564,1.564,0,0,1-1.042-.345l.154-.23a1.328,1.328,0,0,0,.88.306c.566,0,.825-.259.825-.811v-.286a1,1,0,0,1-.872.434,1.085,1.085,0,1,1,0-2.169,1.009,1.009,0,0,1,.885.446v-.429Zm-.293,1.062a.849.849,0,1,0-.851.821A.8.8,0,0,0,204.935,407.68Z" transform="translate(-174.184 -405.878)"/><path class="d" d="M207.685,407.83h-1.871a.828.828,0,0,0,.88.778.881.881,0,0,0,.684-.293l.171.2a1.183,1.183,0,0,1-2.037-.775A1.077,1.077,0,0,1,206.6,406.6a1.066,1.066,0,0,1,1.085,1.135C207.69,407.762,207.685,407.8,207.685,407.83Zm-1.871-.225H207.4a.795.795,0,0,0-1.586,0Z" transform="translate(-173.846 -405.878)"/><path class="d" d="M207.81,408.432a.225.225,0,0,1,.225-.23.229.229,0,0,1,.23.23.232.232,0,0,1-.23.234A.229.229,0,0,1,207.81,408.432Z" transform="translate(-173.544 -405.668)"/><path class="d" d="M208.607,408.432a.225.225,0,0,1,.225-.23.229.229,0,0,1,.23.23.232.232,0,0,1-.23.234A.229.229,0,0,1,208.607,408.432Z" transform="translate(-173.44 -405.668)"/><path class="d" d="M209.4,408.432a.226.226,0,0,1,.226-.23.229.229,0,0,1,.228.23.232.232,0,0,1-.228.234A.229.229,0,0,1,209.4,408.432Z" transform="translate(-173.335 -405.668)"/></g><g transform="translate(8.23 7.755)"><path class="a" d="M166.007,410.016a1.179,1.179,0,0,1-1.812-1.509l2.438-2.928a.763.763,0,0,1,1.173.977l-2.067,2.482,0,0a.433.433,0,0,1-.647-.546l1.592-1.912-.218-.182-1.522,1.826v0l-.074.088.009.007a.7.7,0,0,0,1.072.894l0,0,.041-.049c.012-.013.026-.024.038-.037l0,0,2.015-2.42h0a1.047,1.047,0,0,0-1.607-1.339h0l-2.546,3.058.006,0a1.463,1.463,0,0,0,2.239,1.864l.006,0,2.052-2.464-.219-.182Z" transform="translate(-163.638 -405.022)"/></g></g><g transform="translate(38.071 31.908)"><path class="d" d="M231.489,208.609c0,.1-10.384.183-23.191.183s-23.192-.081-23.192-.183,10.382-.182,23.192-.182S231.489,208.508,231.489,208.609Z" transform="translate(-185.106 -208.427)"/><g transform="translate(0 5.735)"><path class="d" d="M231.489,213.68c0,.1-10.384.183-23.191.183s-23.192-.081-23.192-.183,10.382-.183,23.192-.183S231.489,213.58,231.489,213.68Z" transform="translate(-185.106 -213.497)"/></g><g transform="translate(0 11.472)"><path class="d" d="M231.489,218.751c0,.1-10.384.183-23.191.183s-23.192-.083-23.192-.183,10.382-.183,23.192-.183S231.489,218.651,231.489,218.751Z" transform="translate(-185.106 -218.568)"/></g><g transform="translate(0 17.209)"><path class="d" d="M231.489,223.822c0,.1-10.384.183-23.191.183s-23.192-.083-23.192-.183,10.382-.183,23.192-.183S231.489,223.722,231.489,223.822Z" transform="translate(-185.106 -223.639)"/></g><g transform="translate(0 22.945)"><path class="d" d="M208.379,228.893a4.51,4.51,0,0,1-.914.071l-2.494.058c-2.106.033-5.015.054-8.228.054s-6.124-.021-8.229-.054l-2.494-.058a4.51,4.51,0,0,1-.914-.071,4.31,4.31,0,0,1,.914-.071l2.494-.059c2.105-.033,5.015-.053,8.229-.053s6.121.02,8.228.053l2.494.059A4.309,4.309,0,0,1,208.379,228.893Z" transform="translate(-185.106 -228.71)"/></g></g><g transform="translate(22.539 84.674)"><path class="b" d="M10.883,0h36.85A10.883,10.883,0,0,1,58.615,10.883v4.364A10.883,10.883,0,0,1,47.732,26.13H0a0,0,0,0,1,0,0V10.883A10.883,10.883,0,0,1,10.883,0Z"/><g transform="translate(8.909 9.743)"><path class="d" d="M220.049,263.866c0,.1-9.134.182-20.4.182s-20.4-.081-20.4-.182,9.132-.183,20.4-.183S220.049,263.764,220.049,263.866Z" transform="translate(-179.251 -263.683)"/></g><g transform="translate(8.909 16.104)"><path class="d" d="M204.164,269.489a5.043,5.043,0,0,1-.978.071l-2.67.058c-2.255.034-5.368.054-8.808.054s-6.554-.02-8.808-.054l-2.67-.058a5.043,5.043,0,0,1-.979-.071,4.921,4.921,0,0,1,.979-.071l2.67-.058c2.253-.034,5.368-.054,8.808-.054s6.553.02,8.808.054l2.67.058A4.92,4.92,0,0,1,204.164,269.489Z" transform="translate(-179.251 -269.306)"/></g></g><g transform="translate(20.224 133.461)"><g transform="translate(3.842 33.128)"><path class="a" d="M173.656,327.5v2.747h-.283v-2.5h-.647V327.5Z" transform="translate(-172.726 -327.478)"/><path class="a" d="M174.908,327.5v2.747h-.283v-2.5h-.648V327.5Z" transform="translate(-172.562 -327.478)"/><path class="a" d="M175.382,328.3a.208.208,0,0,1,.207-.213.212.212,0,0,1,.213.213.214.214,0,0,1-.213.215A.21.21,0,0,1,175.382,328.3Zm0,1.671a.207.207,0,0,1,.207-.212.211.211,0,0,1,.213.212.216.216,0,0,1-.213.217A.212.212,0,0,1,175.382,329.975Z" transform="translate(-172.377 -327.401)"/><path class="a" d="M177.949,329.46c0,.459-.334.811-1,.811a1.432,1.432,0,0,1-.989-.352l.137-.224a1.211,1.211,0,0,0,.852.318c.456,0,.707-.213.707-.553s-.232-.545-.742-.545h-.2v-.208l.761-.954h-1.4V327.5h1.766v.2l-.777.976C177.655,328.71,177.949,329.02,177.949,329.46Z" transform="translate(-172.301 -327.478)"/><path class="a" d="M178.068,328.877c0-.875.459-1.4,1.1-1.4s1.1.521,1.1,1.4-.464,1.4-1.1,1.4S178.068,329.753,178.068,328.877Zm1.9,0c0-.733-.33-1.137-.809-1.137s-.808.4-.808,1.137.329,1.139.808,1.139S179.972,329.611,179.972,328.877Z" transform="translate(-172.025 -327.481)"/></g><g transform="translate(0 0)"><path class="b" d="M0,0H72.9A10.883,10.883,0,0,1,83.784,10.883v4.364A10.883,10.883,0,0,1,72.9,26.13H10.883A10.883,10.883,0,0,1,0,15.247V0A0,0,0,0,1,0,0Z" transform="translate(83.784 26.13) rotate(180)"/><g transform="translate(12.687 9.471)"><path class="d" d="M238.065,306.752c0,.1-12.877.182-28.759.182s-28.761-.081-28.761-.182,12.874-.183,28.761-.183S238.065,306.65,238.065,306.752Z" transform="translate(-180.545 -306.569)"/></g><g transform="translate(12.687 15.666)"><path class="d" d="M238.065,312.228c0,.1-12.877.183-28.759.183s-28.761-.083-28.761-.183,12.874-.183,28.761-.183S238.065,312.128,238.065,312.228Z" transform="translate(-180.545 -312.045)"/></g></g></g><g transform="translate(20.4 182.249)"><path class="b" d="M10.883,0h36.85A10.883,10.883,0,0,1,58.615,10.883v4.364A10.883,10.883,0,0,1,47.732,26.13H0a0,0,0,0,1,0,0V10.883A10.883,10.883,0,0,1,10.883,0Z"/><g transform="translate(7.73 9.312)"><path class="d" d="M219.473,349.738c0,.1-9.661.183-21.577.183s-21.578-.082-21.578-.183,9.659-.183,21.578-.183S219.473,349.638,219.473,349.738Z" transform="translate(-176.319 -349.555)"/></g><g transform="translate(7.73 15.52)"><path class="d" d="M204.071,355.226a6.224,6.224,0,0,1-1.091.071l-2.974.058c-2.511.034-5.98.054-9.811.054s-7.3-.02-9.813-.054l-2.974-.058a6.217,6.217,0,0,1-1.089-.071,6.234,6.234,0,0,1,1.089-.071l2.974-.058c2.511-.034,5.98-.054,9.813-.054s7.3.02,9.811.054l2.974.058A6.242,6.242,0,0,1,204.071,355.226Z" transform="translate(-176.319 -355.043)"/></g></g></g></g><g transform="translate(41.511 155.603)"><g transform="translate(655.761)"><g transform="translate(0)"><path class="k" d="M727.946,186.356c-1.249-10.073-9.771-19.464-19.92-19.47-6,0-11.695,3.13-15.791,7.507a41.169,41.169,0,0,0-4,4.748,41.1,41.1,0,0,0-2.991-5.442c-3.155-5.1-8.126-9.292-14-10.47-9.952-1.991-20.156,5.54-23.363,15.169s-.537,20.441,4.738,29.112,14.36,20.006,31.094,25.632c11.536-1.479,26.989-11.712,33.868-19.176S729.2,196.428,727.946,186.356Z" transform="translate(-646.484 -162.907)"/></g><g transform="translate(1.415 22.01)"><path class="j" d="M724.123,201.893a1.2,1.2,0,0,1-.336,0l-.978-.063-3.757-.309-13.8-1.264.248-.153c-1.664,4.339-3.613,9.421-5.751,14.994l-.346.9-.227-.942-5.785-24.019-1.872-7.833.584.117L681.56,197.814l-.1.139-.17-.017L657.035,195.4l-6.866-.766-1.815-.227a3.2,3.2,0,0,1-.621-.11,3.063,3.063,0,0,1,.63.014l1.824.136,6.883.6,24.278,2.293-.27.121,10.488-14.522.417-.579.166.695c.613,2.554,1.241,5.172,1.879,7.831,2.049,8.6,3.992,16.754,5.728,24.034l-.573-.038c2.179-5.557,4.166-10.624,5.863-14.951l.068-.172.181.019,13.783,1.477,3.745.437.972.131A1.231,1.231,0,0,1,724.123,201.893Z" transform="translate(-647.734 -182.363)"/></g></g><g transform="translate(516.617 383.602)"><g transform="translate(0 0)"><path class="k" d="M727.946,186.356c-1.249-10.073-9.771-19.464-19.92-19.47-6,0-11.695,3.13-15.791,7.507a41.169,41.169,0,0,0-4,4.748,41.1,41.1,0,0,0-2.991-5.442c-3.155-5.1-8.126-9.292-14-10.47-9.952-1.991-20.156,5.54-23.363,15.169s-.537,20.441,4.738,29.112,14.36,20.006,31.094,25.632c11.536-1.479,26.989-11.712,33.868-19.176S729.2,196.428,727.946,186.356Z" transform="translate(-646.484 -162.907)"/></g><g transform="translate(1.415 22.01)"><path class="j" d="M724.123,201.893a1.2,1.2,0,0,1-.336,0l-.978-.063-3.757-.309-13.8-1.264.248-.153c-1.664,4.339-3.613,9.421-5.751,14.994l-.346.9-.227-.942-5.785-24.019-1.872-7.833.584.117L681.56,197.814l-.1.139-.17-.017L657.035,195.4l-6.866-.766-1.815-.227a3.2,3.2,0,0,1-.621-.11,3.063,3.063,0,0,1,.63.014l1.824.136,6.883.6,24.278,2.293-.27.121,10.488-14.522.417-.579.166.695c.613,2.554,1.241,5.172,1.879,7.831,2.049,8.6,3.992,16.754,5.728,24.034l-.573-.038c2.179-5.557,4.166-10.624,5.863-14.951l.068-.172.181.019,13.783,1.477,3.745.437.972.131A1.231,1.231,0,0,1,724.123,201.893Z" transform="translate(-647.734 -182.363)"/></g></g><g transform="translate(0 48.739)"><path class="k" d="M121.241,216.332c-2.266-6.512-9.266-11.536-16.008-10.092a15.114,15.114,0,0,0-9.419,7.239,27.861,27.861,0,0,0-1.982,3.724,28.08,28.08,0,0,0-2.763-3.189,15.123,15.123,0,0,0-10.8-4.956c-6.9.1-12.6,6.553-13.356,13.408s2.558,13.654,7.3,18.661,12.392,11.241,24.31,12.591c7.452-2.627,16.256-11.628,19.761-17.566S123.506,222.845,121.241,216.332Z" transform="translate(-66.81 -205.991)"/><g transform="translate(2.757 14.49)"><path class="j" d="M121.07,227.189a.828.828,0,0,1-.223.05l-.658.1-2.54.33-9.35,1.13.143-.137c-.486,3.119-1.057,6.773-1.682,10.779l-.1.65-.286-.594c-2.2-4.583-4.668-9.719-7.267-15.129-.8-1.675-1.591-3.325-2.361-4.936l.405-.006-4.933,11.125-.048.108-.115.012-16.471,1.777-4.67.471-1.238.107a2.066,2.066,0,0,1-.428.016,2.085,2.085,0,0,1,.421-.08l1.231-.171,4.656-.583,16.453-1.94-.162.12c1.5-3.421,3.152-7.174,4.895-11.142l.2-.445.209.438,2.365,4.933c2.586,5.418,5.04,10.559,7.231,15.148l-.387.055c.655-4,1.252-7.651,1.763-10.766l.02-.124.123-.012,9.367-.984,2.549-.244.665-.051A.854.854,0,0,1,121.07,227.189Z" transform="translate(-69.247 -218.8)"/></g></g><g transform="translate(7.919 429.973)"><g transform="translate(0)"><path class="l" d="M121.241,216.332c-2.266-6.512-9.266-11.536-16.008-10.092a15.114,15.114,0,0,0-9.419,7.239,27.861,27.861,0,0,0-1.982,3.724,28.08,28.08,0,0,0-2.763-3.189,15.123,15.123,0,0,0-10.8-4.956c-6.9.1-12.6,6.553-13.356,13.408s2.558,13.654,7.3,18.661,12.392,11.241,24.31,12.591c7.452-2.627,16.256-11.628,19.761-17.566S123.506,222.845,121.241,216.332Z" transform="translate(-66.81 -205.991)"/></g><g transform="translate(2.757 14.49)"><path class="j" d="M121.07,227.189a.828.828,0,0,1-.223.05l-.658.1-2.54.33-9.35,1.13.143-.137c-.486,3.119-1.057,6.773-1.682,10.779l-.1.65-.286-.594c-2.2-4.583-4.668-9.719-7.267-15.129-.8-1.675-1.591-3.325-2.361-4.936l.405-.006-4.933,11.125-.048.108-.115.012-16.471,1.777-4.67.471-1.238.107a2.066,2.066,0,0,1-.428.016,2.085,2.085,0,0,1,.421-.08l1.231-.171,4.656-.583,16.453-1.94-.162.12c1.5-3.421,3.152-7.174,4.895-11.142l.2-.445.209.438,2.365,4.933c2.586,5.418,5.04,10.559,7.231,15.148l-.387.055c.655-4,1.252-7.651,1.763-10.766l.02-.124.123-.012,9.367-.984,2.549-.244.665-.051A.854.854,0,0,1,121.07,227.189Z" transform="translate(-69.247 -218.8)"/></g></g></g><g transform="translate(461.715 0)"><g transform="translate(35.742 32.586)"><g transform="translate(0.273 0.278)"><rect class="a" width="8.873" height="50.778" rx="3.443"/></g><g transform="translate(0.273 15.454)"><rect class="g" width="8.873" height="35.603" rx="3.443"/></g><g transform="translate(14.805 0.278)"><rect class="a" width="8.873" height="50.778" rx="3.443"/></g><g transform="translate(14.805 23.323)"><rect class="g" width="8.873" height="27.733" rx="3.443"/></g><g transform="translate(31.246 0.278)"><rect class="a" width="8.873" height="50.778" rx="3.443"/></g><g transform="translate(31.246 9.451)"><rect class="g" width="8.873" height="41.605" rx="3.443"/></g><path class="d" d="M474.692,105.22a10.476,10.476,0,0,0,1.109-.206,4.252,4.252,0,0,0,3.068-4.091q-.01-1.3-.021-2.8c-.012-2.018-.026-4.307-.041-6.832-.017-5.076-.036-11.1-.059-17.785,0-3.347-.01-6.86-.016-10.5q0-1.364,0-2.755a9.769,9.769,0,0,0-.183-2.7,4.207,4.207,0,0,0-8.026.231A13.966,13.966,0,0,0,470.4,60.5l0,2.756c0,3.643-.01,7.155-.016,10.5-.022,6.686-.042,12.71-.058,17.786-.016,2.525-.029,4.814-.041,6.832,0,1-.028,1.949-.009,2.794a4.156,4.156,0,0,0,.722,2.143,4.336,4.336,0,0,0,2.58,1.76c.721.149,1.122.11,1.12.143a3.511,3.511,0,0,1-1.143-.035,4.369,4.369,0,0,1-3.54-3.994c-.035-.877-.023-1.8-.036-2.81-.011-2.018-.025-4.307-.041-6.832-.016-5.076-.036-11.1-.058-17.786-.006-3.349-.01-6.861-.016-10.5q0-1.366,0-2.756V59.109a5.467,5.467,0,0,1,.137-1.459,4.6,4.6,0,0,1,4.444-3.481,4.7,4.7,0,0,1,2.876.827,4.649,4.649,0,0,1,1.753,2.393,5.132,5.132,0,0,1,.2,1.466v1.395l0,2.755c-.006,3.642-.01,7.154-.016,10.5-.022,6.685-.042,12.709-.059,17.785-.015,2.525-.028,4.813-.04,6.832q-.014,1.505-.024,2.8a4.4,4.4,0,0,1-.678,2.292,4.277,4.277,0,0,1-2.622,1.9A3.207,3.207,0,0,1,474.692,105.22Z" transform="translate(-469.853 -54.164)"/><g transform="translate(14.532)"><path class="d" d="M487.538,105.22a10.476,10.476,0,0,0,1.108-.206,4.251,4.251,0,0,0,3.068-4.091q-.01-1.3-.021-2.8c-.012-2.018-.026-4.307-.041-6.832-.017-5.076-.036-11.1-.059-17.785,0-3.347-.01-6.86-.016-10.5q0-1.364,0-2.755a9.777,9.777,0,0,0-.183-2.7,4.207,4.207,0,0,0-8.026.231,13.866,13.866,0,0,0-.124,2.724q0,1.39,0,2.756c-.006,3.643-.01,7.155-.016,10.5-.022,6.686-.042,12.71-.059,17.786-.015,2.525-.028,4.814-.04,6.832,0,1-.028,1.949-.009,2.794a4.156,4.156,0,0,0,.722,2.143,4.336,4.336,0,0,0,2.58,1.76c.721.149,1.121.11,1.12.143a3.512,3.512,0,0,1-1.143-.035,4.37,4.37,0,0,1-3.54-3.994c-.035-.877-.023-1.8-.036-2.81-.012-2.018-.025-4.307-.041-6.832-.016-5.076-.036-11.1-.058-17.786-.006-3.349-.011-6.861-.016-10.5q0-1.366,0-2.756V59.109a5.46,5.46,0,0,1,.137-1.459,4.6,4.6,0,0,1,4.444-3.481,4.7,4.7,0,0,1,2.874.827,4.638,4.638,0,0,1,1.754,2.393,5.1,5.1,0,0,1,.206,1.466v1.395l0,2.755c-.006,3.642-.011,7.154-.016,10.5-.023,6.685-.042,12.709-.059,17.785-.015,2.525-.028,4.813-.041,6.832q-.012,1.505-.023,2.8a4.4,4.4,0,0,1-.678,2.292,4.277,4.277,0,0,1-2.622,1.9A3.206,3.206,0,0,1,487.538,105.22Z" transform="translate(-482.699 -54.164)"/></g><g transform="translate(30.973)"><path class="d" d="M502.07,105.22a10.418,10.418,0,0,0,1.109-.206,4.251,4.251,0,0,0,3.069-4.091q-.01-1.3-.023-2.8c-.011-2.018-.025-4.307-.04-6.832-.017-5.076-.037-11.1-.059-17.785-.006-3.347-.01-6.86-.016-10.5q0-1.364,0-2.755a9.813,9.813,0,0,0-.183-2.7,4.207,4.207,0,0,0-8.026.231,13.78,13.78,0,0,0-.125,2.724q0,1.39,0,2.756c-.006,3.643-.011,7.155-.016,10.5-.023,6.686-.042,12.71-.059,17.786-.015,2.525-.028,4.814-.041,6.832,0,1-.028,1.949-.009,2.794a4.181,4.181,0,0,0,.722,2.143,4.343,4.343,0,0,0,2.581,1.76c.722.149,1.122.11,1.12.143a3.5,3.5,0,0,1-1.141-.035,4.366,4.366,0,0,1-3.54-3.994c-.036-.877-.024-1.8-.036-2.81-.013-2.018-.026-4.307-.041-6.832-.017-5.076-.036-11.1-.059-17.786,0-3.349-.01-6.861-.016-10.5q0-1.366,0-2.756V59.109a5.46,5.46,0,0,1,.138-1.459,4.6,4.6,0,0,1,4.444-3.481A4.7,4.7,0,0,1,504.69,55a4.643,4.643,0,0,1,1.753,2.393,5.056,5.056,0,0,1,.2,1.466v1.395q0,1.39,0,2.755c0,3.642-.01,7.154-.016,10.5-.022,6.685-.042,12.709-.058,17.785-.016,2.525-.028,4.813-.041,6.832q-.012,1.505-.023,2.8a4.41,4.41,0,0,1-.678,2.292,4.279,4.279,0,0,1-2.622,1.9A3.213,3.213,0,0,1,502.07,105.22Z" transform="translate(-497.232 -54.164)"/></g></g><path class="d" d="M494.2,25.379a5.5,5.5,0,0,1,.959-.016l2.82.08c.619.028,1.316.028,2.078.092l2.488.35,2.9.417,3.243.8A52.523,52.523,0,0,1,524.41,33.96a55.478,55.478,0,0,1,25.48,41.695,57.494,57.494,0,0,1,.153,7.6c-.089,1.285-.063,2.593-.251,3.888s-.393,2.6-.589,3.915a55.785,55.785,0,0,1-5.283,15.469,59.572,59.572,0,0,1-10.1,13.9,58.417,58.417,0,0,1-14.556,10.456,52.877,52.877,0,0,1-17.743,5.446,35.249,35.249,0,0,1-4.732.4,42.687,42.687,0,0,1-4.784.087,56.858,56.858,0,0,1-9.582-1.21,56,56,0,0,1-19.076-8.027l.579.059-19.43,7.8-1.15.462.328-1.193q2.941-10.7,5.712-20.773l.1.514a55.759,55.759,0,0,1-10.369-23.737,50.573,50.573,0,0,1-.756-12.161,39.1,39.1,0,0,1,.552-5.841q.222-1.432.441-2.843c.173-.934.458-1.839.679-2.751a55.574,55.574,0,0,1,21.679-31.6,53.126,53.126,0,0,1,12.9-6.806l2.906-1.041,2.759-.7,2.524-.626c.809-.156,1.591-.239,2.322-.352,1.47-.187,2.759-.44,3.89-.5l2.857-.1,1.743-.038a2.6,2.6,0,0,1,.591.02,2.617,2.617,0,0,1-.589.081l-1.736.137-2.836.191c-1.122.087-2.4.371-3.855.586A55.262,55.262,0,0,0,441,67.362c-.213.9-.489,1.785-.654,2.7q-.207,1.386-.419,2.793a38.14,38.14,0,0,0-.515,5.734,49.525,49.525,0,0,0,.787,11.922,54.745,54.745,0,0,0,10.227,23.22l.175.232-.077.282q-2.747,10.068-5.67,20.785l-.821-.733,19.421-7.82.3-.123.275.182a54.862,54.862,0,0,0,18.65,7.84,55.571,55.571,0,0,0,9.365,1.184,41.6,41.6,0,0,0,4.678-.084,34.233,34.233,0,0,0,4.627-.39,51.76,51.76,0,0,0,17.353-5.307,57.337,57.337,0,0,0,14.257-10.2,58.549,58.549,0,0,0,9.923-13.585,54.813,54.813,0,0,0,5.224-15.135q.3-1.933.593-3.836c.19-1.27.167-2.552.261-3.812a54.057,54.057,0,0,0-9.04-32.921,56.07,56.07,0,0,0-15.9-15.737,52.924,52.924,0,0,0-15.464-6.972l-3.2-.853-2.872-.471-2.464-.407c-.756-.084-1.448-.1-2.062-.152l-2.806-.2A5.364,5.364,0,0,1,494.2,25.379Z" transform="translate(-438.257 -25.358)"/></g><g transform="translate(260.335 63.281)"><g transform="translate(201.803 308.15)"><path class="j" d="M439.462,358.521l4.888,4.887a2.912,2.912,0,0,0,2,.828,2.875,2.875,0,0,0,2-.828,2.84,2.84,0,0,0,.828-2,2.939,2.939,0,0,0-.828-2l-4.887-4.887a2.915,2.915,0,0,0-2-.829,2.881,2.881,0,0,0-2,.829,2.843,2.843,0,0,0-.828,2,2.95,2.95,0,0,0,.828,2Z" transform="translate(-438.632 -353.693)"/></g><g transform="translate(209.424 239.029)"><path class="m" d="M456.315,292.887a51.073,51.073,0,0,1-10.946,0,50.868,50.868,0,0,1,10.946,0Z" transform="translate(-445.369 -292.592)"/></g><g transform="translate(11.232)"><g transform="translate(194.133 82.905)"><path class="n" d="M495.029,184.929c-1.94-5.87,1.562-26.918-3.049-26.958-5.877-.051-4.187,23.8-4.2,25.928-.012,2.071-3.1,2.107-2.98.186.163-2.763,1.083-29.974-4.8-29.5-3.261.265-2.851,6.206-2.851,6.206s1.824,27.214-.962,27.346c-2.829.136-3.776-15.743-4.006-21.328-.221-5.357-2.475-7.483-4.934-5.687-2.627,1.919-1.974,17.913-1.838,23.281s.771,20.093-5.44,12.935-13.621-10.384-16.2-9.879-2.716,4.3-.057,5.533c2.151,1,5.244,3.761,7.488,5.932a33.828,33.828,0,0,1,4.567,6.151,29.523,29.523,0,0,1,3.742,9.022,18.362,18.362,0,0,0,9.265,11.866h0l-.293,9.972,28.685-2.493.55-18.868c.292-14.42,2.815-24.121,4.337-32.7,2.426-13.679.663-14.1-.977-14.022C497.46,168.03,496.924,190.658,495.029,184.929Z" transform="translate(-441.781 -154.583)"/><g transform="translate(30.431 48.806)"><path class="o" d="M491.5,197.78a30.831,30.831,0,0,0-3.941.981,15.23,15.23,0,0,0-7.444,5.958,14.733,14.733,0,0,0-1.318,2.644l-.171.437-.351-.294a23.7,23.7,0,0,0-6.648-3.9c-1.812-.7-2.964-.946-2.944-1.04a9.6,9.6,0,0,1,3.086.638,21.349,21.349,0,0,1,6.928,3.8l-.522.143a14.578,14.578,0,0,1,1.37-2.785,15.063,15.063,0,0,1,3.821-4.014,14.8,14.8,0,0,1,4.036-2.033,12.876,12.876,0,0,1,2.983-.577A3.43,3.43,0,0,1,491.5,197.78Z" transform="translate(-468.681 -197.726)"/></g><g transform="translate(35.064 69.001)"><path class="o" d="M486.971,215.6c.069.155-2.962,1.455-6.965,1.942-4,.512-7.258,0-7.23-.17.016-.2,3.233,0,7.146-.5C483.837,216.4,486.907,215.408,486.971,215.6Z" transform="translate(-472.776 -215.577)"/></g></g><g transform="translate(0 130.502)"><path class="a" d="M417.278,216.357s14.947,7.636,22.814,18.636,31.6,45.093,31.6,45.093l-3.354-51.745,36.674-4.751s10.675,52.117,13.168,70.137c2.334,16.868,1.359,33.46-15.109,42.512-19.436,10.684-41.507-3.741-48.844-9.216-9.117-6.8-25.95-17.89-25.95-17.89Z" transform="translate(-250.864 -194.071)"/><g transform="translate(0.585 0.299)"><g transform="translate(85.27 0.334)"><path class="i" d="M408.2,212.417l-10.462-11.692L352,197.216l-5.929,9.583L362.1,306.856l-7.22,101.059h59.6Z" transform="translate(-346.066 -197.216)"/><g class="p" transform="translate(10.337 180.252)"><path d="M356.445,362.965c1.572-1.679,4.152-3.989,6.452-4.04,16.464-.363,33.285-2.009,49.751-2.371L413.278,387l-8.017-3.749c-.454-3.458-1.034-7.591-4.191-9.072-1.785-.838-3.877-.51-5.812-.127-5.948,1.175-11.855,2.712-17.907,3.088s-12.384-.507-17.467-3.812a10.661,10.661,0,0,1-4.178-4.513A5.528,5.528,0,0,1,356.445,362.965Z" transform="translate(-355.203 -356.554)"/></g></g><g transform="translate(136.943 3.843)"><path class="a" d="M391.743,200.318l29.3,18.963,6.189,20.341,5.933,63.411-6.533,64.908,11.29,39.567h-29.44l-.06-15.611L405.286,282.01l-3.082-70Z" transform="translate(-391.743 -200.318)"/><g transform="translate(15.255 11.339)"><path class="d" d="M405.746,295.845a5.883,5.883,0,0,0,.487-.818l1.3-2.406c.543-1.058,1.069-2.415,1.75-3.962.323-.781.587-1.645.912-2.546s.664-1.857.927-2.887c2.47-8.142,4.1-19.9,3.759-32.873-.034-1-.072-2-.141-2.988l-.011-.172-.161-.067-4.591-1.93.066.475,4.585-3.683.1-.077.006-.113a39.928,39.928,0,0,0-2.089-13.115c-1.154-3.838-2.419-7.144-3.524-9.861s-2.075-4.841-2.765-6.284c-.345-.722-.617-1.275-.81-1.645a3.005,3.005,0,0,0-.316-.551,3.714,3.714,0,0,0,.231.592l.73,1.679c.637,1.465,1.551,3.609,2.616,6.336s2.281,6.039,3.395,9.865c1.079,3.812,2.222,8.2,1.993,12.942l.1-.19-4.594,3.671-.367.293.432.182,4.588,1.936-.172-.239c.066.971.1,1.964.138,2.962.342,12.911-1.221,24.622-3.577,32.745-.249,1.029-.586,1.979-.883,2.884s-.559,1.766-.865,2.548c-.651,1.548-1.144,2.913-1.654,3.98l-1.2,2.446A6.1,6.1,0,0,0,405.746,295.845Z" transform="translate(-405.228 -210.342)"/></g><g transform="translate(36.187 51.504)"><path class="d" d="M423.9,332.47a5.411,5.411,0,0,0,.253-.853q.231-.925.619-2.474c.272-1.074.583-2.393.886-3.937s.7-3.291,1.015-5.248c.344-1.95.708-4.09,1-6.4.351-2.3.59-4.782.869-7.387.471-5.217.787-10.973.793-17.021-.027-6.05-.365-11.806-.856-17.023-.288-2.6-.537-5.08-.9-7.384-.3-2.31-.677-4.448-1.027-6.4-.317-1.956-.718-3.7-1.034-5.243s-.626-2.861-.9-3.933l-.628-2.471a5.241,5.241,0,0,0-.257-.852,5.244,5.244,0,0,0,.145.879q.2.932.525,2.492c.242,1.079.526,2.4.8,3.948s.658,3.293.95,5.249c.325,1.949.674,4.085.956,6.393.338,2.3.569,4.772.843,7.369.46,5.2.782,10.944.809,16.975-.006,6.029-.3,11.767-.746,16.972-.265,2.6-.485,5.073-.814,7.372-.274,2.308-.615,4.446-.932,6.4-.285,1.957-.65,3.707-.931,5.252s-.552,2.871-.79,3.95q-.322,1.565-.516,2.5A5.254,5.254,0,0,0,423.9,332.47Z" transform="translate(-423.731 -245.846)"/></g><g transform="translate(29.253 191.202)"><path class="d" d="M417.608,369.336a11.927,11.927,0,0,0,1.274,2.639,43.063,43.063,0,0,0,8.935,10.906,11.891,11.891,0,0,0,2.336,1.768,20.317,20.317,0,0,0-2.066-2.062,59.838,59.838,0,0,1-8.863-10.82A20.17,20.17,0,0,0,417.608,369.336Z" transform="translate(-417.602 -369.335)"/></g></g><g class="p" transform="translate(85.639 18.395)"><path d="M412.33,336.735c-3.1-1.615-6.892-.773-10.151.489s-6.5,2.936-10,2.9c-4.743-.044-11.474-1.773-13.956-5.815a54.076,54.076,0,0,1-6.009-14.848c-3.781-17.394-4.637-32.649-8.418-50.045-2.058-9.467-4.668-20.421-8.181-29.45-3.4-8.743-6.552-17.794-9.223-26.787.468,20.4.944,40.879,4.1,61.044,2.028,12.966,5.156,25.753,6.86,38.766,1.459,11.145,1.867,22.4,2.273,33.631l10.6,12.963,29.222.594L414.709,340.5Z" transform="translate(-346.392 -213.182)"/></g><g transform="translate(0 19.437)"><path class="a" d="M316.364,215.791a36.091,36.091,0,0,0-22.175,25.676c-8.577,37.825-23.261,88.136-23.492,104.368-.293,20.674,8.747,34.825,20.547,37.435,9.332,2.063,93.921-2.567,93.921-2.567l4-35.3-68.54-6.3,9.38-52.41L320.719,214.1Z" transform="translate(-270.69 -214.103)"/></g><g transform="translate(39.522)"><path class="a" d="M316.133,216.358l18.938-7.739,21.648-11.7.2.628h0c-2.443,4.187-5.041,11.912-4.128,16.674L369.4,300.9l-3.769,63.328-5.447,43.724H305.626l19.79-46.566-9.737-87.459Z" transform="translate(-305.626 -196.921)"/></g><g transform="translate(50.012 86.731)"><path class="d" d="M324.748,273.589a2.516,2.516,0,0,0-.147.583c-.088.446-.2,1-.33,1.678-.282,1.542-.665,3.637-1.134,6.191-.924,5.308-2.178,12.5-3.563,20.457-1.327,7.965-2.528,15.171-3.414,20.486-.4,2.566-.73,4.67-.972,6.219l-.236,1.7a2.4,2.4,0,0,0-.044.6,2.4,2.4,0,0,0,.157-.578c.091-.446.2-1,.341-1.678l1.149-6.188c.947-5.23,2.215-12.462,3.578-20.459s2.563-15.236,3.4-20.485c.395-2.567.718-4.673.957-6.222.091-.685.165-1.248.225-1.7A2.338,2.338,0,0,0,324.748,273.589Z" transform="translate(-314.899 -273.589)"/></g><g transform="translate(77.473 6.104)"><path class="d" d="M341.925,202.317a.692.692,0,0,0-.077.21l-.175.634c-.138.561-.382,1.381-.606,2.465a77.143,77.143,0,0,0-1.446,9.328,105.734,105.734,0,0,0-.36,14.231c.186,5.41.759,11.4,1.575,17.734l.026.2.2.037,6.191,1.148-.211-.381c-.352.95-.72,1.973-1,3.031-2.014,7.353-1.129,14.79.707,21.012a66.236,66.236,0,0,0,7.274,15.67c2.584,4.192,4.921,7.418,6.527,9.647l1.878,2.548.5.654a.141.141,0,1,0,.046-.034l-.456-.686c-.434-.634-1.033-1.506-1.791-2.609-1.55-2.268-3.835-5.525-6.364-9.729a67.29,67.29,0,0,1-7.116-15.609c-1.792-6.165-2.639-13.5-.662-20.714.277-1.039.637-2.041.981-2.974l.119-.321-.33-.061-6.194-1.14.226.239c-.827-6.327-1.421-12.292-1.638-17.682a110.223,110.223,0,0,1,.234-14.179,87.038,87.038,0,0,1,1.276-9.322c.192-1.086.4-1.913.511-2.481.051-.258.092-.47.126-.645A.786.786,0,0,0,341.925,202.317Z" transform="translate(-339.174 -202.317)"/></g><g transform="translate(80.223 78.393)"><path class="g" d="M341.607,282.838V269.011s-.179-3.412,2.695-2.694,2.334,6.105,2.334,6.105.54,21.011-.718,20.832-1.739-1.8-1.739-1.8v-8.08Z" transform="translate(-341.605 -266.218)"/></g><g transform="translate(68.274 95.591)"><path class="d" d="M331.042,281.7a48.786,48.786,0,0,0,7.408.283,48.8,48.8,0,0,0,7.409-.283,48.491,48.491,0,0,0-7.409-.284A48.482,48.482,0,0,0,331.042,281.7Z" transform="translate(-331.042 -281.421)"/></g><g transform="translate(40.911 29.322)"><path class="d" d="M306.854,222.847a10.4,10.4,0,0,0,1.55.574,36.039,36.039,0,0,1,4.109,1.778,31.944,31.944,0,0,1,11.115,9.471,23.616,23.616,0,0,1,2.186,3.559,22.658,22.658,0,0,1,1.314,3.662,36.756,36.756,0,0,1,1.1,6.535c.161,1.887.192,3.423.2,4.483a13.267,13.267,0,0,0,.039,1.653,7.125,7.125,0,0,0,.182-1.647,41.335,41.335,0,0,0-.026-4.518,34.33,34.33,0,0,0-1-6.639,22.431,22.431,0,0,0-1.317-3.765,23.451,23.451,0,0,0-2.23-3.656,30.8,30.8,0,0,0-11.394-9.5,28.726,28.726,0,0,0-4.22-1.63A8.378,8.378,0,0,0,306.854,222.847Z" transform="translate(-306.854 -222.841)"/></g></g><g transform="translate(33.99 144.856)"><path class="d" d="M381.288,366.185a3.777,3.777,0,0,1,.031-.665c.044-.476.1-1.115.176-1.924.178-1.725.429-4.173.746-7.25.682-6.261,1.644-15.076,2.778-25.488l.243.3L359.806,329l-43.021-3.788a22.391,22.391,0,0,0-12.566,2.48,24.862,24.862,0,0,0-3,1.876l-.734.56a1.294,1.294,0,0,1-.263.178,16.982,16.982,0,0,1,3.892-2.816,22.281,22.281,0,0,1,12.711-2.692l43.039,3.617,25.448,2.21.275.024-.032.273c-1.222,10.4-2.256,19.209-2.991,25.465-.38,3.07-.682,5.512-.895,7.233-.109.806-.195,1.44-.259,1.914A3.841,3.841,0,0,1,381.288,366.185Z" transform="translate(-300.219 -324.705)"/></g><g transform="translate(96.121 149.418)"><path class="d" d="M355.673,366.6a7.394,7.394,0,0,1-.2-1.49c-.1-.963-.188-2.36-.256-4.087a108.733,108.733,0,0,1,2.381-26.871c.371-1.689.706-3.048.971-3.979a7.37,7.37,0,0,1,.462-1.431,7.345,7.345,0,0,1-.239,1.484c-.208,1.061-.47,2.405-.785,4.008-.638,3.388-1.381,8.094-1.85,13.332s-.555,10-.524,13.446c.027,1.635.05,3,.068,4.084A7.272,7.272,0,0,1,355.673,366.6Z" transform="translate(-355.141 -328.738)"/></g><g transform="translate(103.399 176.066)"><path class="d" d="M364.53,352.438a1.482,1.482,0,0,1,.841-.144,3.822,3.822,0,0,1,2.2.785,3.625,3.625,0,0,1,1.5,3.121,3.987,3.987,0,0,1-2.422,3.461,3.921,3.921,0,0,1-4.11-.971,3.425,3.425,0,0,1-.819-3.356,3.567,3.567,0,0,1,1.305-1.939c.457-.322.768-.38.777-.353.021.046-.251.176-.631.531a3.619,3.619,0,0,0-1.048,1.862,3.03,3.03,0,0,0,.8,2.875,3.426,3.426,0,0,0,3.511.8,3.494,3.494,0,0,0,2.093-2.946,3.236,3.236,0,0,0-1.212-2.759,3.946,3.946,0,0,0-1.96-.884A5.989,5.989,0,0,1,364.53,352.438Z" transform="translate(-361.574 -352.294)"/></g><path class="d" d="M361.615,196.657s-.118.08-.36.221l-1.084.618-4.242,2.371L339.8,208.79l-.007,0-.009,0L312.608,220.18a29.127,29.127,0,0,0-13.678,11.3,38.717,38.717,0,0,0-4.319,8.739,45.377,45.377,0,0,0-2.349,9.928l0,.024,0,.015c-5.025,21.5-10.731,46.17-16.255,72.383q-1.778,8.459-3.359,16.731c-.273,1.375-.5,2.752-.752,4.122s-.509,2.734-.679,4.094a44.4,44.4,0,0,0-.416,8.147,40.9,40.9,0,0,0,3.594,15.368,29.687,29.687,0,0,0,4.045,6.5,23.216,23.216,0,0,0,5.673,4.842,24.152,24.152,0,0,0,13.818,3.388l13.758-.277c8.877-.221,17.145-.48,24.692-.733l35.748-1.307,9.719-.368L384.37,383c.569-.016.862-.009.862-.009s-.291.034-.86.069l-2.526.143-9.714.479c-8.437.394-20.648.933-35.742,1.494-7.547.281-15.815.563-24.694.8l-13.763.308a24.677,24.677,0,0,1-14.107-3.441,23.758,23.758,0,0,1-5.815-4.949,30.267,30.267,0,0,1-4.133-6.625,41.388,41.388,0,0,1-3.66-15.583,44.82,44.82,0,0,1,.415-8.25c.172-1.384.44-2.742.68-4.115s.48-2.753.752-4.129q1.57-8.276,3.359-16.743c5.525-26.224,11.253-50.89,16.317-72.384l-.006.037a45.8,45.8,0,0,1,2.4-10.052,39.174,39.174,0,0,1,4.393-8.837A29.548,29.548,0,0,1,312.44,219.78l27.227-11.268-.016.007,16.2-8.8,4.282-2.3,1.1-.58C361.484,196.714,361.615,196.657,361.615,196.657Z" transform="translate(-270.173 -196.657)"/><rect class="d" width="25.858" height="8.062" transform="translate(160.504 90.895)"/></g><g transform="translate(110.057 231.172)"><g transform="translate(0 3.913)"><path class="d" d="M539.4,290.251l-86.039,91.774-83.916.516-1.989-3.812,82.713-89.623Z" transform="translate(-367.46 -289.106)"/></g><path class="a" d="M450.451,289.494s5.591-.038,7.244,1.949c1.943,2.333,5.643,7.575-2.459,20.945C452,317.731,436.128,336.182,429.6,355c-6.1,17.6-3.318,23.415-3.318,23.415l60.547-1.888,1.18-2.188s26.324-71.319,19.348-84.848C504.147,283.27,450.022,287.21,450.451,289.494Z" transform="translate(-359.823 -285.581)"/><g transform="translate(71.731)"><path class="j" d="M496.19,374.725l-65.137.542c-.776-16.5,4.948-28.471,13.467-42.626,3.262-5.422,7.714-10.056,10.963-15.486a41.831,41.831,0,0,0,5.83-18.83c.162-2.645,0-5.509-1.627-7.6s-7.43-2.209-9.936-1.183a18.968,18.968,0,0,1,9.586-3.535c5.266-.439,48.316-.144,56.331-.085a25.718,25.718,0,0,1,5.713.928c5.835,3.026,7.035,10.977,6.21,16.7-.783,5.429-4.143,10.539-8.366,16.257a54.478,54.478,0,0,0-3.357,5.116c-4.447,7.706-16.72,29.309-18.926,36.764A34.185,34.185,0,0,0,496.19,374.725Z" transform="translate(-430.854 -285.631)"/><path class="d" d="M496.2,374.6l-15.687.13-29.957.25-12.573.105-4.213.034a10.035,10.035,0,0,1-2.351.02c-.06-.016-.312.049-.355,0-.01-.01.09-1.208.087-1.346q-.02-.852-.016-1.7,0-1.663.105-3.321a56.585,56.585,0,0,1,2.2-12.516c2.411-8.216,6.567-15.791,10.955-23.1,2.41-4.011,5.394-7.6,8.155-11.36a47.13,47.13,0,0,0,6.4-11.534,40.482,40.482,0,0,0,2.556-12.809c.077-2.811-.331-6.654-3.283-7.912a11.276,11.276,0,0,0-4.242-.75c-.968-.012-3.2-.117-4.021.542-.233.187-.109.251.059.208a1.918,1.918,0,0,0,.385-.27c.442-.3.9-.574,1.372-.828a19.519,19.519,0,0,1,5.03-1.885c3.507-.787,7.308-.557,10.878-.587,11.163-.1,22.33-.036,33.493.02q6.445.032,12.887.078a30.519,30.519,0,0,1,6.039.578c3.411.712,5.637,4.136,6.645,7.249a21.373,21.373,0,0,1,.572,10.485c-.859,4.425-3.291,8.389-5.82,12.047-2.286,3.306-4.629,6.495-6.633,9.986q-2.085,3.635-4.131,7.29c-3.27,5.845-6.489,11.727-9.471,17.725-2.564,5.155-5.048,10.248-5.439,16.087a33.692,33.692,0,0,0,.239,7.264c.027.18.3.1.273-.075a31.2,31.2,0,0,1,2.428-17.324c2.554-5.827,5.589-11.452,8.628-17.037q4.152-7.633,8.506-15.157c4.223-7.3,11.013-13.66,11.946-22.447.583-5.484-.683-13.524-6.449-16.024a17.018,17.018,0,0,0-6.231-.921q-2.35-.02-4.7-.032-16.45-.107-32.9-.115c-4.726,0-9.454.009-14.18.1-4.3.078-8.4.5-12.219,2.72a12.444,12.444,0,0,0-1.5,1c-.109.087.009.285.137.236a12.317,12.317,0,0,1,7.749-.1c3.428,1.121,3.8,5.2,3.659,8.307a41.668,41.668,0,0,1-6.9,20.891c-2.016,3.065-4.346,5.9-6.53,8.845a90.409,90.409,0,0,0-5.622,8.762,97.781,97.781,0,0,0-8.2,17.277,58.938,58.938,0,0,0-3.038,21.609.143.143,0,0,0,.141.141l22.011-.183,35.079-.292,8.047-.067A.141.141,0,0,0,496.2,374.6Z" transform="translate(-430.869 -285.647)"/><g transform="translate(10.176 75.199)"><path class="d" d="M491.174,352.415c0,.163-11.487.3-25.655.3s-25.656-.132-25.656-.3,11.484-.294,25.656-.294S491.174,352.253,491.174,352.415Z" transform="translate(-439.864 -352.121)"/></g><g transform="translate(11.613 66.621)"><path class="d" d="M492.446,344.832c0,.163-11.488.3-25.655.3s-25.657-.132-25.657-.3,11.486-.294,25.657-.294S492.446,344.67,492.446,344.832Z" transform="translate(-441.134 -344.538)"/></g><g transform="translate(18.509 57.411)"><path class="d" d="M498.541,336.691c0,.163-11.487.3-25.654.3s-25.657-.132-25.657-.3,11.484-.294,25.657-.294S498.541,336.529,498.541,336.691Z" transform="translate(-447.23 -336.397)"/></g><g transform="translate(22.756 48.998)"><path class="d" d="M502.3,329.255c0,.162-11.488.294-25.655.294s-25.657-.132-25.657-.294,11.486-.3,25.657-.3S502.3,329.092,502.3,329.255Z" transform="translate(-450.984 -328.96)"/></g><g transform="translate(25.587 41.303)"><path class="d" d="M504.8,322.453c0,.162-11.488.294-25.655.294s-25.657-.132-25.657-.294,11.484-.3,25.657-.3S504.8,322.29,504.8,322.453Z" transform="translate(-453.487 -322.158)"/></g><g transform="translate(32.507 31.195)"><path class="d" d="M510.915,313.516c0,.163-11.487.294-25.654.294s-25.657-.131-25.657-.294,11.485-.294,25.657-.294S510.915,313.353,510.915,313.516Z" transform="translate(-459.604 -313.222)"/></g><g transform="translate(39.114 21.52)"><path class="d" d="M516.755,304.964c0,.163-11.487.3-25.654.3s-25.657-.132-25.657-.3,11.484-.294,25.657-.294S516.755,304.8,516.755,304.964Z" transform="translate(-465.444 -304.67)"/></g><g transform="translate(38.642 12.318)"><path class="d" d="M516.337,296.83c0,.163-11.487.294-25.654.294s-25.657-.131-25.657-.294,11.485-.294,25.657-.294S516.337,296.667,516.337,296.83Z" transform="translate(-465.027 -296.536)"/></g></g><g transform="translate(1.988 3.912)"><path class="m" d="M449.942,289.106a2.186,2.186,0,0,1,.356.253l1.011.8,3.9,3.173.1.085-.093.1c-7.008,7.657-22.184,24.027-39.8,42.909-12.159,13.319-23.863,24.728-32.331,32.956-4.241,4.112-7.7,7.413-10.1,9.681l-2.778,2.6-.733.664a1.45,1.45,0,0,1-.265.212,1.55,1.55,0,0,1,.223-.255l.694-.706c.646-.642,1.551-1.539,2.7-2.678l9.968-9.815c8.4-8.309,20.035-19.743,32.192-33.06,17.61-18.882,32.886-35.158,40.038-42.682l.011.187-3.819-3.268-.97-.852A2.05,2.05,0,0,1,449.942,289.106Z" transform="translate(-369.218 -289.105)"/></g><g transform="translate(5.486 44.194)"><path class="n" d="M375.741,334.942l12.278-.006s8.3-7.235,10.193-7.8c3.948-1.179,14.15-2.423,14.15-2.423l-6.967,7.55h0c-1.61,1.744-4.579,3.318-2.818,3.318h12.773s13.072-6.272,15.014-5.124c1.631.963,2.2,2.7.529,5.124s-13.121,8.148-14.443,8.588l-3.743,1.1,3.524,1.1,16.658-5.82c1.081-.193,2.575-.372,3.062.255a2.225,2.225,0,0,1-.087,3.221,70.442,70.442,0,0,1-7.538,5.925s2.66,3.907.457,5.889-8.588,7.928-8.588,7.928-.661,3.3-2.643,4.845-23.785,1.541-25.327,1.541-10.35-5.065-10.35-5.065l-9.565-.7Z" transform="translate(-372.31 -324.713)"/><g transform="translate(41.413 25.228)"><path class="o" d="M408.918,353.325a6.786,6.786,0,0,0,2.385.321,7.291,7.291,0,0,0,2.606-.457,14.67,14.67,0,0,0,2.838-1.511c1.888-1.227,3.577-2.363,4.788-3.206a11.02,11.02,0,0,0,1.9-1.454,11.194,11.194,0,0,0-2.1,1.152c-1.26.765-2.983,1.854-4.868,3.079a16.277,16.277,0,0,1-2.729,1.5,7.64,7.64,0,0,1-2.449.535C409.843,353.35,408.925,353.238,408.918,353.325Z" transform="translate(-408.918 -347.013)"/></g><g transform="translate(40.411 35.735)"><path class="o" d="M408.034,360.264a2.675,2.675,0,0,0,1.656.928,6.139,6.139,0,0,0,4.495-.755,18.5,18.5,0,0,0,3.649-2.716,5.685,5.685,0,0,0,1.242-1.413,60.246,60.246,0,0,1-5.137,3.681,6.313,6.313,0,0,1-4.175.85A10.207,10.207,0,0,1,408.034,360.264Z" transform="translate(-408.032 -356.302)"/></g><g transform="translate(34.239 20.233)"><path class="o" d="M402.576,344.016a13.758,13.758,0,0,0,6.726-1.389,78.456,78.456,0,0,0-6.726,1.389Z" transform="translate(-402.576 -342.598)"/></g></g></g><g transform="translate(23.716)"><g transform="translate(0 32.448)"><path class="q" d="M333.862,128.745a24.818,24.818,0,0,0-34.088-9.318c-4.882,2.83-8.941,7.943-8.613,13.577.308,5.311,4.266,9.6,7.995,13.394-5.94,2.475-8.918,10.007-6.976,16.143s8.076,10.458,14.485,11.052,12.86-2.2,17.484-6.673,7.547-10.491,9.145-16.726" transform="translate(-291.136 -109.177)"/><g transform="translate(2.103)"><path class="d" d="M313.3,143.26a10.4,10.4,0,0,1-3.259.822,15.272,15.272,0,0,1-8.913-1.855,15.579,15.579,0,0,1-4.883-4.079,15.1,15.1,0,0,1-2.967-6.67,18.1,18.1,0,0,1,4.666-15.589A20.268,20.268,0,0,1,313.217,110a18.583,18.583,0,0,1,12.42,5.122,12.428,12.428,0,0,1,3.668,8.282,9.635,9.635,0,0,1-.244,2.49,5.962,5.962,0,0,1-.178.626c-.046.139-.075.208-.085.206a13.962,13.962,0,0,0,.277-3.311,12.381,12.381,0,0,0-3.732-8,18.292,18.292,0,0,0-12.146-4.873,19.831,19.831,0,0,0-14.83,5.756,17.644,17.644,0,0,0-4.557,15.083,14.691,14.691,0,0,0,2.819,6.466,15.827,15.827,0,0,0,13.388,6.007A23.811,23.811,0,0,0,313.3,143.26Z" transform="translate(-292.996 -109.98)"/></g><g transform="translate(7.704 36.536)"><path class="m" d="M319.949,143.95c.019.035-.255.213-.772.506a14.158,14.158,0,0,1-2.293,1.023,19.261,19.261,0,0,1-3.622.906,20.538,20.538,0,0,1-9.07-.687,19.221,19.221,0,0,1-3.445-1.441,14.121,14.121,0,0,1-2.113-1.356c-.466-.367-.711-.584-.686-.617.063-.088,1.11.7,2.986,1.6a22.03,22.03,0,0,0,3.411,1.293,21.973,21.973,0,0,0,8.843.669,21.9,21.9,0,0,0,3.566-.764C318.746,144.472,319.9,143.853,319.949,143.95Z" transform="translate(-297.946 -142.277)"/></g><g transform="translate(0 18.357)"><path class="m" d="M291.142,132.62a4.663,4.663,0,0,1,.456-1.358,7.711,7.711,0,0,1,2.4-3.1,11.314,11.314,0,0,1,5.506-1.851,27.587,27.587,0,0,1,7.087.334,37.435,37.435,0,0,1,12.118,4.181,33.519,33.519,0,0,1,3.287,2.086,6.23,6.23,0,0,1,1.1.91,7.222,7.222,0,0,1-1.23-.719c-.779-.476-1.907-1.163-3.355-1.908A40.506,40.506,0,0,0,306.5,127.23a28.485,28.485,0,0,0-6.94-.376,11.241,11.241,0,0,0-5.316,1.648,8.056,8.056,0,0,0-2.436,2.861A11.272,11.272,0,0,1,291.142,132.62Z" transform="translate(-291.137 -126.208)"/></g><g transform="translate(2.729 46.002)"><path class="m" d="M325.377,152.109c.017.01-.041.141-.167.381s-.329.587-.61,1.022a18.335,18.335,0,0,1-2.851,3.322,19.146,19.146,0,0,1-13.262,5.087,18.774,18.774,0,0,1-7.777-1.709,14.386,14.386,0,0,1-5.121-4.011,9.561,9.561,0,0,1-1.895-3.953,6.108,6.108,0,0,1-.141-1.187c-.008-.273,0-.415.018-.416.068-.006.074.57.346,1.549a10.028,10.028,0,0,0,2,3.747,14.439,14.439,0,0,0,5.026,3.781,18.766,18.766,0,0,0,7.553,1.611,19.419,19.419,0,0,0,7.591-1.458,19.886,19.886,0,0,0,5.387-3.351A28.131,28.131,0,0,0,325.377,152.109Z" transform="translate(-293.549 -150.645)"/></g><g transform="translate(0.739 48.626)"><path class="m" d="M327.761,157.69a9.9,9.9,0,0,1-1.236,1.5c-.839.929-2.092,2.243-3.742,3.764-.825.76-1.757,1.563-2.8,2.382a19.62,19.62,0,0,1-3.549,2.324,19.254,19.254,0,0,1-9.479,1.843,16.07,16.07,0,0,1-9.112-3.147,16.507,16.507,0,0,1-4.791-6.275,14.484,14.484,0,0,1-1.251-5.173,8.247,8.247,0,0,1,.035-1.449,1.66,1.66,0,0,1,.078-.5,1.648,1.648,0,0,1,.041.5,11.861,11.861,0,0,0,.075,1.428,15.4,15.4,0,0,0,1.4,5.019,16.5,16.5,0,0,0,4.745,6.017,15.75,15.75,0,0,0,8.811,2.988,19.059,19.059,0,0,0,9.208-1.743,19.633,19.633,0,0,0,3.488-2.222c1.038-.793,1.979-1.57,2.816-2.307,1.675-1.47,2.967-2.733,3.855-3.611A16.11,16.11,0,0,1,327.761,157.69Z" transform="translate(-291.79 -152.964)"/></g></g><g transform="translate(30.776 48.326)"><path class="g" d="M333.791,127.034l1.653,1.3c-.668-2.813-3.808-4.587-6.684-4.283a9.706,9.706,0,0,0-6.892,4.76,23.385,23.385,0,0,0-2.766,8.165c-.888,4.745-1.327,9.814.562,14.254s6.768,7.929,11.452,6.763c4.661-1.161,7.274-6.234,7.966-10.988A26.644,26.644,0,0,0,333.791,127.034Z" transform="translate(-318.341 -124.016)"/><g transform="translate(0.294 23.824)"><path class="d" d="M327.275,145.777a7.123,7.123,0,0,1-4.475.973,9.462,9.462,0,0,1-3.2-.706c-.833-.333-1.074-.95-.977-.966a3.966,3.966,0,0,0,1.123.576,13.867,13.867,0,0,0,3.084.508A31.373,31.373,0,0,0,327.275,145.777Z" transform="translate(-318.601 -145.076)"/></g><g transform="translate(0.429 15.629)"><path class="d" d="M329.556,138.343A50.071,50.071,0,0,1,318.721,138a50.071,50.071,0,0,1,10.835.342Z" transform="translate(-318.721 -137.832)"/></g><g transform="translate(2.275 6.334)"><path class="d" d="M327.532,130.449c-.023.195-1.678-.048-3.644-.225a8.745,8.745,0,0,0-2.485.138c-.623.137-1,.3-1.048.218-.037-.059.279-.36.927-.617a6.163,6.163,0,0,1,2.645-.328A9.579,9.579,0,0,1,327.532,130.449Z" transform="translate(-320.352 -129.615)"/></g></g><g transform="translate(36.181)"><g transform="translate(13.972)"><path class="q" d="M337.043,114.1c-.136-4.74,4.249-8.4,8.661-10.138s9.316-2.39,13.249-5.038c3.483-2.344,5.824-6,8.772-8.989a29.186,29.186,0,0,1,49.085,13.391c1.695,6.75.538,14.73-4.783,19.217-6.174,5.2-15.33,4.049-23.243,2.43s-16.868-3.216-23.475,1.43c-3.984,2.8-6.267,7.36-8.7,11.58s-5.492,8.525-10.1,10.111-10.86-1.153-11.039-6.021" transform="translate(-335.471 -81.297)"/></g><g transform="translate(0 14.223)"><path class="q" d="M338.984,115.053c.523,3.972-2.353,7.529-5.214,10.334s-6.1,5.778-6.6,9.754c-.589,4.643,2.8,9.215,1.817,13.791-.625,2.9-2.883,5.142-4.253,7.779a16.526,16.526,0,0,0-.843,12.179c1.179,4,3.059,12.936,5.84,16.045,7.691,8.6,19.936,16.017,31.179,18.6s22.919,2.6,34.433,1.889c9.426-.579,20.265-.146,28.12-13.114,4.068-6.715,6.083-15.645,8.245-23.194,1.862-6.5,3.472-13.459,1.536-19.937-1.127-3.774-3.4-7.129-4.509-10.909-1.389-4.721-.884-9.77-1.442-14.659a33.631,33.631,0,0,0-47.849-26.555" transform="translate(-323.12 -93.87)"/></g><g transform="translate(5.022 6.667)"><g transform="translate(22.135 16.289)"><path class="n" d="M351.307,207.99l.059.416Z" transform="translate(-346.576 -87.624)"/><path class="n" d="M419.63,130.327c-.882-13.525-9.882-30.1-23.358-28.648l-42.066,10.731a7.932,7.932,0,0,0-7.078,8.06l4.625,99.241a13.283,13.283,0,0,0,1.169,4.886c3.126,6.889,13.505,24.39,36.049,17.3,5.515-1.734,8.034-7.767,9.127-13.973.01-.738.3-1.386.314-2.089a66.483,66.483,0,0,0,.165-13.936c.078-8.194.07-11.555.075-11.478,0,0,17.277-2.909,20.807-25.466C421.213,163.74,420.61,145.355,419.63,130.327Z" transform="translate(-347.125 -101.59)"/><path class="n" d="M351.359,208.358c.011.078.009.065,0,0Z" transform="translate(-346.57 -87.576)"/></g><g transform="translate(13.469 11.48)"><g transform="translate(29.974 30.905)"><g transform="translate(0 9.188)"><g transform="translate(35.798)"><g transform="translate(2.851 5.502)"><path class="d" d="M405.9,140.25a2.893,2.893,0,0,1-2.783,2.924,2.767,2.767,0,0,1-2.987-2.6,2.893,2.893,0,0,1,2.78-2.925A2.768,2.768,0,0,1,405.9,140.25Z" transform="translate(-400.126 -137.644)"/></g><path class="d" d="M409.036,135.807c-.357.378-2.552-1.239-5.664-1.224-3.109-.029-5.389,1.577-5.728,1.2-.166-.169.2-.85,1.19-1.576a7.933,7.933,0,0,1,4.584-1.424,7.609,7.609,0,0,1,4.509,1.445C408.887,134.956,409.213,135.638,409.036,135.807Z" transform="translate(-397.606 -132.78)"/></g><g transform="translate(5.21 0.648)"><g transform="translate(2.599 4.854)"><path class="d" d="M378.635,140.25a2.893,2.893,0,0,1-2.782,2.924,2.766,2.766,0,0,1-2.987-2.6,2.892,2.892,0,0,1,2.778-2.925A2.768,2.768,0,0,1,378.635,140.25Z" transform="translate(-372.864 -137.644)"/></g><path class="d" d="M382,136.38c-.359.378-2.556-1.238-5.665-1.223-3.109-.029-5.389,1.576-5.728,1.2-.166-.169.194-.85,1.191-1.576a7.927,7.927,0,0,1,4.583-1.424,7.629,7.629,0,0,1,4.51,1.445C381.846,135.53,382.173,136.212,382,136.38Z" transform="translate(-370.567 -133.353)"/></g><g transform="translate(26.472 0.803)"><path class="d" d="M390.876,159.416c-.015-.178,1.919-.516,5.052-.923.794-.085,1.546-.244,1.679-.786a4.05,4.05,0,0,0-.535-2.354q-1.128-2.881-2.364-6.046c-3.282-8.608-5.66-15.687-5.312-15.816s3.291,6.743,6.574,15.351q1.185,3.183,2.264,6.082a4.6,4.6,0,0,1,.42,3.118,1.993,1.993,0,0,1-1.3,1.165,5.379,5.379,0,0,1-1.348.19C392.844,159.575,390.887,159.593,390.876,159.416Z" transform="translate(-389.361 -133.489)"/></g><g transform="translate(0 55.561)"><path class="o" d="M396.178,189.883a57.369,57.369,0,0,1-30.217-7.989s7.628,15.592,30.192,13.433Z" transform="translate(-365.961 -181.894)"/></g><g transform="translate(17.408 32.127)"><path class="o" d="M390.628,163.284a5.607,5.607,0,0,0-5.032-2.071,5.117,5.117,0,0,0-3.531,1.9,3.244,3.244,0,0,0-.239,3.709,3.763,3.763,0,0,0,4.083,1.023,11.783,11.783,0,0,0,3.972-2.382,3.449,3.449,0,0,0,.887-.922,1.041,1.041,0,0,0-.008-1.158" transform="translate(-381.349 -161.179)"/></g><g transform="translate(18.331 28.901)"><path class="d" d="M382.667,158.328c.506-.031.519,3.347,3.416,5.739s6.491,2.011,6.518,2.483c.047.213-.8.658-2.32.7a8.4,8.4,0,0,1-5.441-1.881,7.329,7.329,0,0,1-2.648-4.812C382.061,159.147,382.435,158.31,382.667,158.328Z" transform="translate(-382.165 -158.328)"/></g></g><g transform="translate(3.83 5.092)"><path class="d" d="M383.545,131.479c-.3.847-3.413.453-7.062.9-3.66.376-6.6,1.45-7.087.692-.217-.362.294-1.16,1.483-1.981a12.378,12.378,0,0,1,10.78-1.214C383,130.415,383.677,131.078,383.545,131.479Z" transform="translate(-369.347 -129.16)"/></g><g transform="translate(35.467)"><path class="d" d="M407.911,127.87c-.546.708-2.691-.02-5.269-.05-2.576-.119-4.759.485-5.264-.252-.221-.359.121-1.068,1.074-1.739a7.632,7.632,0,0,1,8.487.243C407.851,126.8,408.152,127.523,407.911,127.87Z" transform="translate(-397.313 -124.658)"/></g></g><path class="q" d="M339.465,187.156a20.023,20.023,0,0,0,23.821-22.143c-.7-5.538-3.687-11.172-1.767-16.415,2.539-6.93,12.254-9.063,14.832-15.978,1.5-4.019.153-8.721,1.852-12.66,1.6-3.7,5.493-5.837,9.286-7.21s7.861-2.318,11.046-4.793,5.171-7.147,3.117-10.619a213.661,213.661,0,0,0-49.274,11.972c-3.68,1.374-7.546,3.026-9.721,6.3-2.3,3.461-2.192,7.934-2,12.085q1.417,30.371,2.835,60.742" transform="translate(-339.465 -97.339)"/></g><path class="m" d="M342.443,196.241c-.011.014-.135-.067-.364-.233l-1-.764c-.871-.683-2.153-1.7-3.735-3.094a39.833,39.833,0,0,1-5.3-5.579,20.8,20.8,0,0,1-4.216-9.282,14.119,14.119,0,0,1,2.907-11.866,45.676,45.676,0,0,1,5.255-4.48,12.257,12.257,0,0,0,4.1-5.59c1.667-4.6.924-9.92,1.569-15.359a30.574,30.574,0,0,1,6.393-15.538,21.085,21.085,0,0,1,6.687-5.465,41.251,41.251,0,0,1,7.89-2.663,18.366,18.366,0,0,0,6.924-3.412,27.243,27.243,0,0,0,5.027-5.543c2.831-4.023,4.927-8.309,7.625-11.884a25.793,25.793,0,0,1,4.444-4.717,16.944,16.944,0,0,1,5.268-2.869c3.638-1.242,7.481-.832,10.015,1a9.226,9.226,0,0,1,3.557,6.75,6.727,6.727,0,0,1-1.356,4.644,4.2,4.2,0,0,1-.92.881c-.23.172-.35.252-.36.239s.09-.122.294-.317a4.891,4.891,0,0,0,.826-.923,6.687,6.687,0,0,0,1.131-4.5,8.864,8.864,0,0,0-3.5-6.326c-2.379-1.656-6.008-2.014-9.469-.785a16.358,16.358,0,0,0-5.012,2.8,25.19,25.19,0,0,0-4.264,4.612c-2.614,3.516-4.668,7.792-7.539,11.921a28.019,28.019,0,0,1-5.178,5.752,19.306,19.306,0,0,1-7.246,3.606,40.824,40.824,0,0,0-7.714,2.61,20.158,20.158,0,0,0-6.372,5.218,29.728,29.728,0,0,0-6.194,15.028c-.656,5.258.1,10.661-1.675,15.551a13.142,13.142,0,0,1-4.4,5.948,45.856,45.856,0,0,0-5.2,4.356c-2.894,3.221-3.437,7.619-2.829,11.2a20.4,20.4,0,0,0,3.968,9.063,41.511,41.511,0,0,0,5.118,5.627c1.533,1.431,2.773,2.493,3.6,3.225A11.278,11.278,0,0,1,342.443,196.241Z" transform="translate(-327.559 -87.191)"/></g></g><g transform="translate(128.403 22.632)"><path class="d" d="M423.844,159.134a5.444,5.444,0,0,0,1.318-2.161,8.325,8.325,0,0,0-1.288-6.62c-.783-1.256-1.835-2.5-2.9-3.914a13.692,13.692,0,0,1-2.6-5.045,17.78,17.78,0,0,1-.251-6.263c.235-2.156.671-4.346.952-6.6a25.7,25.7,0,0,0-1.474-12.508,28.029,28.029,0,0,0-5.389-8.839,26.108,26.108,0,0,0-5.357-4.532c-1.4-.893-2.241-1.3-2.213-1.352a2.9,2.9,0,0,1,.621.26,15.429,15.429,0,0,1,1.712.9,24.39,24.39,0,0,1,5.543,4.444,27.793,27.793,0,0,1,5.59,8.928,25.885,25.885,0,0,1,1.552,12.774c-.285,2.279-.724,4.464-.963,6.586a17.4,17.4,0,0,0,.2,6.069,13.316,13.316,0,0,0,2.464,4.885c1.035,1.406,2.083,2.686,2.862,3.985a8.433,8.433,0,0,1,1.153,6.91,4.38,4.38,0,0,1-1.008,1.666A2.241,2.241,0,0,1,423.844,159.134Z" transform="translate(-404.641 -101.303)"/></g></g></g><g transform="translate(0 342.236)"><path class="d" d="M647.838,383.824c-214.43,0-387.594.133-387.594.294s173.164.294,387.594.3Z" transform="translate(-260.244 -383.824)"/></g></g><g transform="translate(540.398 338.612)"><rect class="b" width="96.762" height="110.859" transform="translate(0.295 0.295)"/><path class="d" d="M604.867,435.835s-.009-.184-.015-.533-.008-.874-.015-1.546c-.007-1.372-.017-3.381-.03-5.995-.016-5.246-.04-12.907-.069-22.633-.032-19.438-.077-47.119-.131-80.152l.26.26-96.752.034h-.009l.294-.294c-.017,40.878-.033,78.992-.046,110.859l-.248-.249,70.154.128,19.632.064,5.181.029c1.176.009,1.794.027,1.794.027s-.583.018-1.74.027l-5.133.029-19.577.065-70.311.128h-.249v-.249c-.012-31.866-.028-69.981-.045-110.859v-.3h.3l96.752.034h.261v.26c-.053,33.1-.1,60.84-.131,80.32-.029,9.7-.052,17.341-.068,22.574-.013,2.591-.023,4.583-.03,5.943-.007.659-.011,1.164-.015,1.518C604.878,435.67,604.867,435.835,604.867,435.835Z" transform="translate(-507.811 -324.681)"/><g transform="translate(4.321 4.181)"><g transform="translate(10.597 26.535)"><path class="r" d="M526.188,360.62c1.19-1.782,1.962-9.136,3.506-8.724,1.968.526-.8,8.336-.989,9.049-.186.694.839.99.979.337.2-.938,2.4-10.112,4.324-9.41,1.066.389.38,2.335.38,2.335s-3.12,8.923-2.2,9.224,2.714-4.911,3.306-6.755c.568-1.769,1.517-2.272,2.173-1.445.7.884-.993,6.166-1.534,7.947s-2.111,6.642.624,4.823,5.508-2.212,6.323-1.805.511,1.686-.492,1.853a12.33,12.33,0,0,0-3.049,1.291,11.76,11.76,0,0,0-2.093,1.633,10.219,10.219,0,0,0-2.082,2.67,6.367,6.367,0,0,1-4.19,3.109h0l-.823,3.358L521,376.63l1.557-6.354a62.29,62.29,0,0,0,1.568-11.323c.451-4.794,1.079-4.772,1.62-4.594C526.935,354.751,525.027,362.359,526.188,360.62Z" transform="translate(-520.998 -351.833)"/><g transform="translate(3.483 14.968)"><path class="s" d="M524.077,365.068a10.577,10.577,0,0,1,1.226.691,5.281,5.281,0,0,1,1.937,2.678,5.146,5.146,0,0,1,.2,1l.017.162.144-.067a8.215,8.215,0,0,1,2.582-.69c.67-.066,1.077-.043,1.079-.076a3.306,3.306,0,0,0-1.09-.071,7.383,7.383,0,0,0-2.664.629l.161.1a5.041,5.041,0,0,0-.2-1.058,5.225,5.225,0,0,0-.906-1.692,5.118,5.118,0,0,0-1.162-1.052,4.405,4.405,0,0,0-.942-.468A1.217,1.217,0,0,0,524.077,365.068Z" transform="translate(-524.077 -365.065)"/></g><g transform="translate(2.954 22.072)"><path class="s" d="M523.61,371.348a8.51,8.51,0,0,0,4.579,1.9c.014-.069-1.08-.3-2.342-.826S523.65,371.29,523.61,371.348Z" transform="translate(-523.609 -371.345)"/></g></g><g transform="translate(0 45.362)"><path class="g" d="M522.459,418.637a10.175,10.175,0,0,0,5.588-2.356l15.088-12.758L543,418.228l-2.989.214.84,10.928h46.712l.018-.259a16.551,16.551,0,0,0,5.269-10.16c1.136-7.275,1.559-19.139,2.575-27.521.714-5.9-.586-13.54-5.834-16.327l-4.061-1.6h0l-12.765-5.027-16.4.755-10.95,3.071c-3.036,1.155-5.655,4.791-7.521,7.473l-9.125,12.694c.1-2.071,3.875-14.584,4.124-15.146l-11.169-4.6s-11.508,25.577-9.957,36.624C513.064,418.538,522.459,418.637,522.459,418.637Z" transform="translate(-511.631 -368.476)"/></g><g transform="translate(35.039)"><path class="d" d="M574.044,336.053a11.227,11.227,0,0,1,3.084,11.1l-.024.084a38.427,38.427,0,0,1-6.807,13.3c-.275.348-.709.73-1.1.527a.969.969,0,0,1-.39-.793,32.134,32.134,0,0,1,.4-7.818,19.428,19.428,0,0,0-.226-7.792c-.739-2.51-2.6-4.841-5.153-5.435a8.293,8.293,0,0,0-5.588,1c-1.717.889-3.24,2.1-4.881,3.126a10.662,10.662,0,0,1-5.405,1.888,5.063,5.063,0,0,1-4.735-2.739c-.764-1.775.243-4.228,2.147-4.565-1.73-.218-2.638-1.9-2.757-3.639,0,0,.111-2.946,4.381-2.745,0,0,.571-4.43,4.863-2.821,3.854,1.445,4.364,2.587,10.436,1.231,0,0,8.188-1.989,10.691,5.066Z" transform="translate(-542.604 -328.377)"/><g transform="translate(2.94 3.765)"><path class="r" d="M572.679,347.458l-3.786,29.1a8.731,8.731,0,0,1-10.208,7.464h0a8.734,8.734,0,0,1-7.1-9.73c.287-2.19.523-4.017.537-4.245,0,0-7.317-1.661-6.9-9.062.2-3.577,1.22-10.91,2.217-17.533a13.808,13.808,0,0,1,14.609-11.712l.713.049C570.422,332.768,573.87,339.824,572.679,347.458Z" transform="translate(-545.203 -331.706)"/><g transform="translate(6.762 36.159)"><path class="s" d="M551.329,365.744a17.236,17.236,0,0,0,9.829-2.075s-2.646,5.165-9.979,3.99Z" transform="translate(-551.18 -363.669)"/></g><g transform="translate(3.153 11.176)"><g transform="translate(0 4)"><g transform="translate(0 1.105)"><path class="d" d="M548,347.073c.122.146.963-.39,2.1-.309,1.136.065,1.929.707,2.062.577.064-.058-.052-.316-.4-.605a2.906,2.906,0,0,0-1.64-.632,2.8,2.8,0,0,0-1.682.419C548.079,346.765,547.943,347.006,548,347.073Z" transform="translate(-547.99 -346.098)"/></g><g transform="translate(10.954 1.735)"><path class="d" d="M557.687,347.629c.122.147.964-.389,2.1-.308,1.136.064,1.929.707,2.062.577.065-.058-.05-.316-.4-.605a2.9,2.9,0,0,0-1.639-.632,2.8,2.8,0,0,0-1.682.418C557.763,347.322,557.627,347.563,557.687,347.629Z" transform="translate(-557.673 -346.655)"/></g><g transform="translate(4.028)"><path class="d" d="M554.392,354.556a7.494,7.494,0,0,0-1.822-.46c-.289-.05-.559-.127-.594-.328a1.479,1.479,0,0,1,.253-.847l1.01-2.151a38.03,38.03,0,0,0,2.327-5.647,38.223,38.223,0,0,0-2.776,5.447q-.511,1.134-.975,2.166a1.688,1.688,0,0,0-.23,1.129.734.734,0,0,0,.448.457,1.972,1.972,0,0,0,.489.1A7.411,7.411,0,0,0,554.392,354.556Z" transform="translate(-551.551 -345.121)"/></g><g transform="translate(6.329 10.451)"><path class="d" d="M557.416,354.36c-.185-.024-.271,1.209-1.388,2.013s-2.42.576-2.441.748c-.023.077.276.26.831.313a3.075,3.075,0,0,0,2.033-.554,2.685,2.685,0,0,0,1.085-1.693C557.617,354.673,557.5,354.359,557.416,354.36Z" transform="translate(-553.585 -354.36)"/></g></g><g transform="translate(11.586 0.106)"><path class="d" d="M558.236,342.391c.09.316,1.235.248,2.558.5,1.327.226,2.376.69,2.571.425.088-.127-.079-.431-.493-.76a4.535,4.535,0,0,0-3.907-.706C558.461,342.014,558.2,342.24,558.236,342.391Z" transform="translate(-558.232 -341.679)"/></g><g transform="translate(1.123)"><path class="d" d="M549.006,342.632c.182.273.984.059,1.926.111.943.019,1.726.293,1.929.036.089-.125-.018-.393-.351-.661A2.79,2.79,0,0,0,549.4,342C549.054,342.242,548.926,342.5,549.006,342.632Z" transform="translate(-548.983 -341.585)"/></g></g></g><g transform="translate(28.645 24.818)"><path class="r" d="M568.715,350.449c.129-.046,5.185-1.153,4.674,3.892s-5.471,3.492-5.464,3.346S568.715,350.449,568.715,350.449Z" transform="translate(-567.925 -350.316)"/><g transform="translate(1.728 1.717)"><path class="s" d="M569.459,355.734c.023-.015.081.07.223.153a.879.879,0,0,0,.656.08,2.187,2.187,0,0,0,1.2-1.85,2.929,2.929,0,0,0-.119-1.283,1.018,1.018,0,0,0-.593-.741.448.448,0,0,0-.543.188c-.083.135-.06.239-.088.244s-.1-.095-.037-.3a.569.569,0,0,1,.23-.3.671.671,0,0,1,.5-.079,1.244,1.244,0,0,1,.839.876,3.015,3.015,0,0,1,.163,1.437,2.293,2.293,0,0,1-1.5,2.049.946.946,0,0,1-.79-.215C569.455,355.856,569.44,355.74,569.459,355.734Z" transform="translate(-569.453 -351.834)"/></g></g><g transform="translate(3.714 2.478)"><path class="d" d="M545.887,341.956a10.708,10.708,0,0,0,9.636-1.482c1.905-1.4,3.444-3.5,5.746-4.036a6.019,6.019,0,0,1,4.551.946,11.636,11.636,0,0,1,3.261,3.44c-1.689,3.66-1.018,7.921-.315,11.89a2.01,2.01,0,0,0,.508,1.207,1.61,1.61,0,0,0,2.045-.305,6.259,6.259,0,0,0,1.6-3.2,20.868,20.868,0,0,0,.517-8.2,14.187,14.187,0,0,0-3.4-7.415,13.444,13.444,0,0,0-9.163-4.2,16.508,16.508,0,0,0-9.79,2.757,9.673,9.673,0,0,0-3.352,3.362" transform="translate(-545.887 -330.568)"/></g><g transform="translate(21.021 25.056)"><path class="s" d="M561.276,350.8a.138.138,0,1,0-.086-.165A.132.132,0,0,0,561.276,350.8Z" transform="translate(-561.185 -350.525)"/></g><g transform="translate(18.887 24.375)"><path class="s" d="M559.386,350.232a.162.162,0,1,0-.079-.186A.145.145,0,0,0,559.386,350.232Z" transform="translate(-559.3 -349.924)"/></g><g transform="translate(17.424 24.142)"><path class="s" d="M558.1,350.122c.068.014.141-.067.163-.178s-.016-.213-.084-.225-.141.066-.163.177S558.029,350.108,558.1,350.122Z" transform="translate(-558.007 -349.718)"/></g><g transform="translate(19.83 26.454)"><path class="s" d="M560.253,351.922c.069.006.128-.027.13-.071s-.05-.084-.119-.088-.128.027-.131.071S560.184,351.917,560.253,351.922Z" transform="translate(-560.133 -351.761)"/></g><g transform="translate(17.887 25.731)"><path class="s" d="M558.519,351.406a.134.134,0,0,0,.146-.121.126.126,0,1,0-.248-.039A.133.133,0,0,0,558.519,351.406Z" transform="translate(-558.415 -351.123)"/></g><g transform="translate(7.623 23.785)"><path class="s" d="M549.431,349.68a.136.136,0,0,0,.158-.1.126.126,0,1,0-.242-.067A.136.136,0,0,0,549.431,349.68Z" transform="translate(-549.342 -349.402)"/></g><g transform="translate(6.141 23.512)"><path class="s" d="M548.134,349.474a.162.162,0,1,0-.1-.178A.146.146,0,0,0,548.134,349.474Z" transform="translate(-548.032 -349.161)"/></g><g transform="translate(8.921 23.972)"><path class="s" d="M550.585,349.785a.111.111,0,1,0-.092-.14A.119.119,0,0,0,550.585,349.785Z" transform="translate(-550.49 -349.567)"/></g><g transform="translate(7.755 25.324)"><path class="s" d="M549.521,351.032a.147.147,0,1,0-.043-.187A.137.137,0,0,0,549.521,351.032Z" transform="translate(-549.459 -350.763)"/></g><g transform="translate(6.425 25.043)"><path class="s" d="M548.429,350.725a.108.108,0,1,0-.144-.079A.117.117,0,0,0,548.429,350.725Z" transform="translate(-548.284 -350.514)"/></g></g><g transform="translate(36.109 4.658)"><path class="m" d="M556.945,335.959a4.539,4.539,0,0,1-1.81,1.8,7.571,7.571,0,0,1-10.858-2.814,4.532,4.532,0,0,1-.707-2.454,24.12,24.12,0,0,0,1.067,2.245,7.54,7.54,0,0,0,10.285,2.664A23.981,23.981,0,0,0,556.945,335.959Z" transform="translate(-543.55 -332.494)"/></g><g transform="translate(43.735 4.669)"><path class="m" d="M572.082,337.245a6.117,6.117,0,0,0-2.249-2.566,7.143,7.143,0,0,0-3.535-1.027,17.765,17.765,0,0,0-4.591.545,34.846,34.846,0,0,1-4.67.856,9.335,9.335,0,0,1-3.9-.414,5.947,5.947,0,0,1-2.269-1.355c-.444-.446-.6-.758-.578-.776a7.683,7.683,0,0,0,2.974,1.734,9.513,9.513,0,0,0,3.721.271,40.525,40.525,0,0,0,4.592-.892,17.044,17.044,0,0,1,4.748-.511,7.261,7.261,0,0,1,3.733,1.221,5.1,5.1,0,0,1,1.757,1.982A1.88,1.88,0,0,1,572.082,337.245Z" transform="translate(-550.292 -332.504)"/></g><g transform="translate(61.934 12.649)"><path class="m" d="M572.361,342.443a5.48,5.48,0,0,1-5.966-2.878,10.706,10.706,0,0,0,5.966,2.878Z" transform="translate(-566.379 -339.558)"/></g><g transform="translate(61.75 14.781)"><path class="m" d="M571.76,345.54c-.021.077-.433.051-1.086-.08a7.809,7.809,0,0,1-2.466-.925,4.409,4.409,0,0,1-1.793-1.989c-.267-.653-.211-1.1-.141-1.1.09-.014.185.385.514.915a5.2,5.2,0,0,0,1.727,1.674,13.583,13.583,0,0,0,2.275,1.027C571.4,345.29,571.782,345.46,571.76,345.54Z" transform="translate(-566.216 -341.443)"/></g><g transform="translate(31.397 61.819)"><path class="d" d="M539.5,416.338c-.066,0-.118-7.458-.118-16.657s.052-16.659.118-16.659.118,7.457.118,16.659S539.567,416.338,539.5,416.338Z" transform="translate(-539.385 -383.023)"/></g><g transform="translate(66.471 55.261)"><path class="d" d="M581.94,377.443a19.888,19.888,0,0,0-2.22-.044,10.161,10.161,0,0,0-8.5,5.628,19.434,19.434,0,0,0-.827,2.062,2.49,2.49,0,0,1,.112-.592,8.986,8.986,0,0,1,.564-1.544,9.915,9.915,0,0,1,8.642-5.721,8.9,8.9,0,0,1,1.641.084A2.6,2.6,0,0,1,581.94,377.443Z" transform="translate(-570.389 -377.226)"/></g><g transform="translate(14.598 67.743)"><path class="d" d="M527,388.26a4.839,4.839,0,0,1-.047.7,18.719,18.719,0,0,0-.05,1.908c.009,1.614.349,3.826.466,6.3a12.318,12.318,0,0,1-1.162,6.2,6.509,6.509,0,0,1-1.135,1.559,3.963,3.963,0,0,1-.538.459,8.9,8.9,0,0,0,1.524-2.1,12.727,12.727,0,0,0,1.075-6.113c-.115-2.456-.431-4.683-.4-6.312a13.925,13.925,0,0,1,.126-1.92c.026-.225.068-.4.089-.515A.514.514,0,0,1,527,388.26Z" transform="translate(-524.535 -388.26)"/></g><g transform="translate(11.413 93.704)"><path class="r" d="M538.81,414.237l.859,9.511-4.491-.018c-.119,0-1.952-.029-3.973-.064a27.883,27.883,0,0,1-4.559.122c-.127-.014-.2-.029-.212-.048a3.67,3.67,0,0,1-.692-.167h-.02l0-.007c-.407-.148-.825-.409-.76-.856.2-1.364,1.007-1.474,1.007-1.474l.407-.028.033-.118c-.617,0-1.135-.016-1.41-.045-.127-.014-.2-.029-.211-.048,0,0-1.593-.189-1.471-1.031.2-1.364,1.007-1.474,1.007-1.474s.551-.038,1.311-.087c-.637,0-1.175-.015-1.457-.044-.127-.014-.2-.029-.212-.047,0,0-1.592-.189-1.471-1.032.2-1.363,1.008-1.473,1.008-1.473s.443-.032,1.083-.074c-.514,0-.941-.018-1.181-.044-.127-.014-.2-.03-.212-.048,0,0-1.592-.189-1.471-1.031.2-1.364,1.008-1.473,1.008-1.473s2.5-.179,4.225-.25c0,0,1.952-1.76,2.72-1.679,1.148.121,7.827,2.586,7.827,2.586Z" transform="translate(-521.719 -411.209)"/><g transform="translate(2.112 4.241)"><g transform="translate(2.123 5.418)"><path class="s" d="M529.892,419.835a8.932,8.932,0,0,1-2.226.214,8.579,8.579,0,0,1-2.2-.07,8.96,8.96,0,0,1,2.226-.215A8.6,8.6,0,0,1,529.892,419.835Z" transform="translate(-525.463 -419.748)"/></g><g transform="translate(0.227 2.74)"><path class="s" d="M530.127,417.45a35.062,35.062,0,0,1-6.34.224,17.679,17.679,0,0,1,3.165-.256A17.459,17.459,0,0,1,530.127,417.45Z" transform="translate(-523.787 -417.38)"/></g><g class="t"><path class="s" d="M529.927,415.028a35.236,35.236,0,0,1-6.341.225,34.923,34.923,0,0,1,6.341-.225Z" transform="translate(-523.586 -414.958)"/></g></g><g transform="translate(4.523 1.635)"><path class="s" d="M525.717,412.755a4.586,4.586,0,0,0,1.009.079l2.432.079,2.432.088a4.625,4.625,0,0,0,1.013-.01,4.168,4.168,0,0,0-1-.155c-.622-.063-1.483-.124-2.436-.157s-1.816-.031-2.44-.01A4.134,4.134,0,0,0,525.717,412.755Z" transform="translate(-525.717 -412.654)"/></g></g><g transform="translate(28.382 67.671)"><path class="d" d="M536.72,415.853a.771.771,0,0,0,.157,0l.456-.023,1.753-.1,6.45-.4c5.445-.331,12.966-.805,21.279-1.226l4.453-.2.106,0,0-.111c.07-1.8.237-3.571.368-5.26s.283-3.313.415-4.854c.272-3.075.516-5.819.719-8.117.2-2.282.362-4.117.475-5.4.051-.622.091-1.109.119-1.455l.025-.378a.583.583,0,0,0,0-.129.606.606,0,0,0-.024.127c-.011.1-.027.219-.046.376-.037.345-.092.83-.159,1.451-.129,1.279-.315,3.113-.544,5.393-.218,2.3-.478,5.039-.772,8.112-.137,1.541-.28,3.163-.432,4.854-.136,1.694-.306,3.446-.378,5.279l.112-.115-4.456.2c-8.313.422-15.834.922-21.278,1.3l-6.443.471-1.751.146-.456.045A.84.84,0,0,0,536.72,415.853Z" transform="translate(-536.72 -388.196)"/></g></g></g></g></svg>