<svg xmlns="http://www.w3.org/2000/svg" width="185.736" height="188.642" viewBox="0 0 185.736 188.642"><defs><style>.a{opacity:0.18;}.b{fill:#585858;}</style></defs><g class="a" transform="translate(0)"><path class="b" d="M1151.073,285.865c-.227,2.255-.528,4.719-.715,7.194-.856,11.351-7.4,17.351-18.842,17.826-6.327.261-12.773.609-18.887,2.076a52.1,52.1,0,0,0-14.266,6.373c-5.536,3.329-8.691,8.436-8.161,15.266a14.673,14.673,0,0,1-.032,1.66c-.093,2.575-1.344,4.707-3.932,4.131-1.433-.319-3.271-2.593-3.447-4.153-.951-8.432,2.052-15.464,8.562-20.959,8.81-7.437,19.257-10.642,30.5-11.676,3.3-.3,6.637-.206,9.957-.316,6.988-.232,10.416-3.451,11.021-10.325a3.091,3.091,0,0,1,.037-.413c1.96-8.783.31-16.208-5.509-23.686-6.632-8.524-9.967-19.017-11.75-29.8a6.962,6.962,0,0,0-.431-1.588,14.146,14.146,0,0,0-1.415-1.849c-1,6.843-1.9,12.883-2.761,18.93-.135.951.314,2.282-.18,2.825-1.172,1.291-2.672,2.864-4.189,3.041-.9.105-3.031-2.268-2.985-3.466.471-12.387,2.047-24.591,8.651-35.481a24.281,24.281,0,0,1,14.989-11.031q12.6-3.446,25.1-7.258c8.337-2.552,15.3-6.508,16.325-16.524.111-1.073,2.6-2.769,3.8-2.624,1.246.151,3.324,2.322,3.188,3.369-.453,3.476-1.149,7.171-2.826,10.182-3.52,6.318-9.436,10.031-16.227,12.149-8.444,2.635-16.973,5-25.463,7.489a43.925,43.925,0,0,0-4.346,1.362c-5.455,2.236-6.3,3.6-5.485,9.4,1.961,14.008,6.019,27.349,14.171,39.034a58.781,58.781,0,0,0,11.058,11.65c2.822,2.3,6.715,3.29,11.09,5.309-1.607-13.337,1.126-24.263,9.2-33.294,7.948-8.888,18.049-13.452,30.075-12.834,5.728-17.524,3.446-47.13-17.931-57.454-2.227-1.075-3.671-2.76-2.361-5.318,1.407-2.747,3.691-2.449,6.03-1.227,13.265,6.931,20.388,18.281,23.192,32.613,2.1,10.739,1.366,21.476-.749,32.337l9.15,4.059c5.162-22.321,6.946-44.141-5.925-64.622-7.354-11.7-18.617-17.04-31.978-18.156-19.569-1.632-37.567,3.223-54.038,13.88a28.609,28.609,0,0,0-12.73,17.248c-2.788,10.489-6.8,20.505-13.406,29.248-2.321,3.071-4.7,6.3-7.7,8.618-10.8,8.357-11.8,19.408-9.013,31.415,2.052,8.851,7.392,16.015,13.25,22.738,3.181,3.649,6.582,7.107,9.911,10.625,1.7,1.8,2.639,3.777.688,5.828-2.121,2.23-4.337,1.45-6.074-.6-6.344-7.477-13.282-14.567-18.72-22.661a44.864,44.864,0,0,1-7.187-32.448,27.176,27.176,0,0,1,8.7-16.564c10.489-9.446,17.838-21.016,21.049-34.578,3.651-15.415,13.512-24.629,27.052-30.9,17.835-8.254,36.446-12.663,56.042-8.522,21.668,4.58,33.5,19.23,38.277,40.126,3.87,16.933,2.24,33.835-1.216,50.622a6.606,6.606,0,0,0,1.764,6.575c10.744,12.167,12.911,26.193,6.768,40.966-5.989,14.4-17.367,22.575-33.021,23.27-16.029.711-27.865-6.83-35.377-20.928-1.307-2.452-2.623-3.359-5.456-3.833C1161.006,289.394,1156.258,287.45,1151.073,285.865Zm84.415-9.927a30.881,30.881,0,0,0-29.35-30.647c-18.254-.633-31.876,14.888-31.495,31.774.39,17.287,14.35,30.947,31.2,30.556C1222.418,307.237,1235.932,292.794,1235.488,275.939Z" transform="translate(-1080.797 -151.844)"/><path class="b" d="M1267.221,331.583l4.53-5.866c7.33,5.681,14.592,10.97,21.451,16.739,4.873,4.1,4.774,11.469.383,15.955a11.037,11.037,0,0,1-15.989.11c-6.094-6.216-11.876-12.737-18.07-19.427l5.46-5.056,15.8,17.074c.658.711,1.246,1.917,1.994,2.025,1.8.261,4.215.714,5.4-.194,2.144-1.639,1.4-4.009-.646-5.614-5.325-4.188-10.717-8.292-16.08-12.433C1270.159,333.893,1268.873,332.876,1267.221,331.583Z" transform="translate(-1111.132 -181.356)"/><path class="b" d="M1230.444,275.471c-1.22,2.591-2.06,4.472-2.979,6.313-4.57,9.154-10.536,17.169-18.97,23.16-2.184,1.552-4.566,2.737-6.495-.019-1.871-2.674-.223-4.516,2.092-6.115,7.831-5.411,13.023-12.99,17.2-21.366.677-1.358,1.016-3.12,2.085-3.982a5.569,5.569,0,0,1,4.349-1.123C1228.9,272.68,1229.646,274.482,1230.444,275.471Z" transform="translate(-1101.231 -172.277)"/></g></svg>