<svg xmlns="http://www.w3.org/2000/svg" width="173.742" height="135.727" viewBox="0 0 173.742 135.727"><defs><style>.a{fill:#bbcffe;}.b{fill:#ffeb9e;}.c{fill:#462847;}.d{opacity:0.18;}.e{fill:#585858;}</style></defs><path class="a" d="M1550.642,1394.17c0-.568,0-11.651,1.421-11.651s10.656,1.7,10.656,1.7v45.467s-8.951,1.421-9.377,1.136-1.989-8.667-2.7-8.383-8.951,3.41-10.8.71-1.137-34.1-1.137-34.1l10.088-.852,1.847,6.82Z" transform="translate(-1536.094 -1316.035)"/><path class="a" d="M1630.028,1384.39c-.426-.71,9.52-1.989,9.946-.995a61.183,61.183,0,0,1,1.279,6.252l8.241-.568a9,9,0,0,1,3.268,8.525c-.71,5.825-.71,25.717-1.421,25.859s-10.088.852-10.088.852.284,5.683-1.279,5.825-12.219-.852-12.219-.852V1383.4Z" transform="translate(-1540.175 -1316.059)"/><path class="b" d="M1566.741,1398.453h56.265l1.989,3.978v12.077h-60.67v-16.055Z" transform="translate(-1537.272 -1316.765)"/><path class="c" d="M148.548,125.365a2.507,2.507,0,0,1-2.4-1.777l-7.615-25.014H115.726a2.507,2.507,0,1,1,0-5.014h24.665a2.507,2.507,0,0,1,2.4,1.777l5.757,18.914,8.41-27.622a2.506,2.506,0,0,1,4.8,0l3.639,11.954h22.046a2.507,2.507,0,0,1,0,5.014h-23.9a2.506,2.506,0,0,1-2.4-1.776l-1.782-5.855-8.41,27.622a2.5,2.5,0,0,1-2.4,1.777Zm0,0" transform="translate(-75.347 -56.636)"/><path class="c" d="M165.975,21.6a2.506,2.506,0,1,0-4.367,2.462,36.077,36.077,0,0,1,4.641,17.62c.031,16.428-9.409,34.7-28.056,54.32a252.471,252.471,0,0,1-38.837,32.667,3.221,3.221,0,0,1-3.646,0,259.026,259.026,0,0,1-33.948-27.707H85.151v10.158A5.855,5.855,0,0,0,91,116.967h5.46a5.856,5.856,0,0,0,5.85-5.849v-.212a5.864,5.864,0,0,0,.835.067h5.46a5.855,5.855,0,0,0,5.849-5.849V76.517a5.855,5.855,0,0,0-5.849-5.849h-5.46a5.682,5.682,0,0,0-.835.068v-.213a5.856,5.856,0,0,0-5.85-5.849H91a5.855,5.855,0,0,0-5.849,5.849v9.911h-7.9a2.507,2.507,0,1,0,0,5.014h7.9v10.5H29.3v-10.5H65.911a2.507,2.507,0,1,0,0-5.014H43.828C33.846,66.627,28.8,53.594,28.818,41.682A36.286,36.286,0,0,1,65.065,5.513h.051A36.09,36.09,0,0,1,93.344,19.1a5.374,5.374,0,0,0,8.381,0A36.094,36.094,0,0,1,129.951,5.513H130a36.07,36.07,0,0,1,24.873,9.938,2.506,2.506,0,1,0,3.444-3.642A41.053,41.053,0,0,0,130,.5h-.059a41.079,41.079,0,0,0-32.13,15.463.362.362,0,0,1-.559,0A41.088,41.088,0,0,0,65.124.5h-.059A41.308,41.308,0,0,0,23.8,41.673c-.022,12.122,4.652,25.144,13.9,38.761H29.3V70.522a5.855,5.855,0,0,0-5.848-5.849H17.994a5.855,5.855,0,0,0-5.848,5.849v.213a5.868,5.868,0,0,0-.835-.067H5.849A5.855,5.855,0,0,0,0,76.517v28.606a5.855,5.855,0,0,0,5.848,5.848H11.31a5.871,5.871,0,0,0,.835-.067v.213a5.855,5.855,0,0,0,5.848,5.849h5.462a5.855,5.855,0,0,0,5.848-5.849V100.96H54.691a260.069,260.069,0,0,0,38.2,31.853,8.208,8.208,0,0,0,9.284,0,257.679,257.679,0,0,0,39.651-33.36c19.566-20.581,29.47-40.022,29.437-57.782A41.112,41.112,0,0,0,165.975,21.6ZM103.144,75.682h5.462a.836.836,0,0,1,.835.835v28.606a.837.837,0,0,1-.835.836h-5.462a.837.837,0,0,1-.835-.836V76.517a.836.836,0,0,1,.835-.835Zm-12.98-5.16A.836.836,0,0,1,91,69.688h5.46a.837.837,0,0,1,.836.835v40.6a.837.837,0,0,1-.836.835H91a.836.836,0,0,1-.835-.835Zm-65.874,40.6a.837.837,0,0,1-.835.836H17.993a.837.837,0,0,1-.835-.836V91.3a2.507,2.507,0,0,0-5.014,0v13.825a.837.837,0,0,1-.836.836H5.848a.837.837,0,0,1-.835-.836V76.517a.836.836,0,0,1,.835-.835H11.31a.836.836,0,0,1,.835.835V79.6a2.507,2.507,0,0,0,5.014,0V70.522a.837.837,0,0,1,.836-.835h5.46a.836.836,0,0,1,.835.835Zm0,0" transform="translate(0 -0.5)"/><g class="d" transform="translate(2.479 1.975)"><path class="e" d="M148.548,125.365a2.507,2.507,0,0,1-2.4-1.777l-7.615-25.014H115.726a2.507,2.507,0,1,1,0-5.014h24.665a2.507,2.507,0,0,1,2.4,1.777l5.757,18.914,8.41-27.622a2.506,2.506,0,0,1,4.8,0l3.639,11.954h22.046a2.507,2.507,0,0,1,0,5.014h-23.9a2.506,2.506,0,0,1-2.4-1.776l-1.782-5.855-8.41,27.622a2.5,2.5,0,0,1-2.4,1.777Zm0,0" transform="translate(-75.347 -56.636)"/><path class="e" d="M165.975,21.6a2.506,2.506,0,1,0-4.367,2.462,36.077,36.077,0,0,1,4.641,17.62c.031,16.428-9.409,34.7-28.056,54.32a252.471,252.471,0,0,1-38.837,32.667,3.221,3.221,0,0,1-3.646,0,259.026,259.026,0,0,1-33.948-27.707H85.151v10.158A5.855,5.855,0,0,0,91,116.967h5.46a5.856,5.856,0,0,0,5.85-5.849v-.212a5.864,5.864,0,0,0,.835.067h5.46a5.855,5.855,0,0,0,5.849-5.849V76.517a5.855,5.855,0,0,0-5.849-5.849h-5.46a5.682,5.682,0,0,0-.835.068v-.213a5.856,5.856,0,0,0-5.85-5.849H91a5.855,5.855,0,0,0-5.849,5.849v9.911h-7.9a2.507,2.507,0,1,0,0,5.014h7.9v10.5H29.3v-10.5H65.911a2.507,2.507,0,1,0,0-5.014H43.828C33.846,66.627,28.8,53.594,28.818,41.682A36.286,36.286,0,0,1,65.065,5.513h.051A36.09,36.09,0,0,1,93.344,19.1a5.374,5.374,0,0,0,8.381,0A36.094,36.094,0,0,1,129.951,5.513H130a36.07,36.07,0,0,1,24.873,9.938,2.506,2.506,0,1,0,3.444-3.642A41.053,41.053,0,0,0,130,.5h-.059a41.079,41.079,0,0,0-32.13,15.463.362.362,0,0,1-.559,0A41.088,41.088,0,0,0,65.124.5h-.059A41.308,41.308,0,0,0,23.8,41.673c-.022,12.122,4.652,25.144,13.9,38.761H29.3V70.522a5.855,5.855,0,0,0-5.848-5.849H17.994a5.855,5.855,0,0,0-5.848,5.849v.213a5.868,5.868,0,0,0-.835-.067H5.849A5.855,5.855,0,0,0,0,76.517v28.606a5.855,5.855,0,0,0,5.848,5.848H11.31a5.871,5.871,0,0,0,.835-.067v.213a5.855,5.855,0,0,0,5.848,5.849h5.462a5.855,5.855,0,0,0,5.848-5.849V100.96H54.691a260.069,260.069,0,0,0,38.2,31.853,8.208,8.208,0,0,0,9.284,0,257.679,257.679,0,0,0,39.651-33.36c19.566-20.581,29.47-40.022,29.437-57.782A41.112,41.112,0,0,0,165.975,21.6ZM103.144,75.682h5.462a.836.836,0,0,1,.835.835v28.606a.837.837,0,0,1-.835.836h-5.462a.837.837,0,0,1-.835-.836V76.517a.836.836,0,0,1,.835-.835Zm-12.98-5.16A.836.836,0,0,1,91,69.688h5.46a.837.837,0,0,1,.836.835v40.6a.837.837,0,0,1-.836.835H91a.836.836,0,0,1-.835-.835Zm-65.874,40.6a.837.837,0,0,1-.835.836H17.993a.837.837,0,0,1-.835-.836V91.3a2.507,2.507,0,0,0-5.014,0v13.825a.837.837,0,0,1-.836.836H5.848a.837.837,0,0,1-.835-.836V76.517a.836.836,0,0,1,.835-.835H11.31a.836.836,0,0,1,.835.835V79.6a2.507,2.507,0,0,0,5.014,0V70.522a.837.837,0,0,1,.836-.835h5.46a.836.836,0,0,1,.835.835Zm0,0" transform="translate(0 -0.5)"/></g></svg>