<svg xmlns="http://www.w3.org/2000/svg" width="170.922" height="169.657" viewBox="0 0 170.922 169.657"><defs><style>.a{fill:#bbcffe;}.b{fill:#ffeb9e;}.c{fill:#462847;}.d{opacity:0.18;}.e{fill:#585858;}</style></defs><path class="a" d="M913.01,1928.977c7.183,8.426,19.915,31.39,39.891,37.506a194.222,194.222,0,0,1-2.854,22.014,83.551,83.551,0,0,1-22.83-13.045C915.395,1966.075,905.826,1920.551,913.01,1928.977Z" transform="translate(-908.01 -1826.483)"/><path class="a" d="M1039.881,1889.434h32.472s2.227-5.01,1.856-7.979-7.608-7.237-9.278-6.865-3.9-4.824-3.9-4.824-4.268-6.866-5.01-6.866-6.865.557-6.865,3.526-.557,9.649-2.6,9.649-10.391,3.525-10.391,6.68S1039.881,1889.434,1039.881,1889.434Z" transform="translate(-914.168 -1821.874)"/><path class="b" d="M919.706,1907.126c8.2,11.338,6.513-3.377,6.513-3.377l10.373-8.2s-7.96-7.96-8.2-16.4,1.689-28.223,9.167-31.359,28.706-7.719,29.671-7,14.474,4.342,18.092,11.1,9.649,22.193,4.583,31.6-6.754,12.061-6.754,12.061l8.925,8.2,15.2-10.614s-1.206-34.5-1.206-35.46-11.579-23.64-21.71-27.741-19.78-7.719-35.943-3.618-25.087,10.855-31.118,21.469S911.5,1895.788,919.706,1907.126Z" transform="translate(-908.117 -1821.244)"/><g transform="translate(0)"><path class="c" d="M51.2,0A51.261,51.261,0,0,0,0,51.2V114.72a51.219,51.219,0,0,0,75.39,45.141,3.241,3.241,0,0,0-3.066-5.71,44.839,44.839,0,0,1-25.74,5.054A77.481,77.481,0,0,1,69.418,105.4L95.924,78.893V114.72a44.242,44.242,0,0,1-4.81,20.2,3.241,3.241,0,1,0,5.78,2.932,50.667,50.667,0,0,0,5.511-23.13V51.2A51.261,51.261,0,0,0,51.2,0ZM15.47,95.33a71.053,71.053,0,0,0,35.5,23.745,85.137,85.137,0,0,0-7.844,19.011A63.1,63.1,0,0,1,6.481,81.081v-.342A70.278,70.278,0,0,0,15.47,95.33ZM6.481,114.72v-4.369a69.407,69.407,0,0,0,35.139,34.162,84.2,84.2,0,0,0-1.494,13.54A44.8,44.8,0,0,1,6.481,114.72Zm58.354-13.9a84.429,84.429,0,0,0-10.321,12.516A63.882,63.882,0,0,1,18.205,88.309a41.772,41.772,0,0,1,10.255-9.677,35.576,35.576,0,0,0,45.479,0A41.214,41.214,0,0,1,81.052,84.6ZM51.2,22.037a3.943,3.943,0,1,1,0,7.886,3.241,3.241,0,0,0,0,6.481,10.43,10.43,0,0,0,10.213-12.52A29.166,29.166,0,1,1,51.2,22.037ZM95.924,69.749c-.078.064-.154.132-.227.2L85.641,80.009a47.672,47.672,0,0,0-7.03-6.039,35.647,35.647,0,1,0-54.815,0,48.363,48.363,0,0,0-9.246,8.522A64.268,64.268,0,0,1,6.481,51.2a44.721,44.721,0,1,1,89.443,0Z" transform="translate(0)"/><path class="c" d="M142.967,197.106a8.823,8.823,0,0,0,6.258-2.588,3.241,3.241,0,1,0-4.583-4.583,2.37,2.37,0,0,1-3.35,0,3.241,3.241,0,1,0-4.583,4.583A8.824,8.824,0,0,0,142.967,197.106Z" transform="translate(-91.765 -127.741)"/><path class="c" d="M114.781,143.021a3.242,3.242,0,1,0-2.291-.949A3.25,3.25,0,0,0,114.781,143.021Z" transform="translate(-75.393 -92.292)"/><path class="c" d="M187.7,143.021a3.242,3.242,0,1,0-2.291-.949A3.265,3.265,0,0,0,187.7,143.021Z" transform="translate(-124.682 -92.292)"/><path class="c" d="M408.406,142.753a6.371,6.371,0,0,0,1.735-4.368v-3.32a9.733,9.733,0,0,0-9.722-9.722H397.7v-3.085a9.765,9.765,0,0,0-9.371-9.871,9.722,9.722,0,0,0-10.073,9.716v3.241h-2.716a9.733,9.733,0,0,0-9.722,9.722v3.32a6.371,6.371,0,0,0,1.735,4.368A13.556,13.556,0,0,0,364,151.916v36.3a13.626,13.626,0,0,0,13.611,13.611h20.74a13.626,13.626,0,0,0,13.611-13.611v-36.3A13.556,13.556,0,0,0,408.406,142.753Zm-36.1-7.688a3.244,3.244,0,0,1,3.241-3.241h2.816a6.388,6.388,0,0,0,6.381-6.381V122.1a3.241,3.241,0,0,1,3.362-3.238,3.349,3.349,0,0,1,3.12,3.394v3.186a6.388,6.388,0,0,0,6.381,6.381h2.816a3.244,3.244,0,0,1,3.241,3.241v3.241H372.3v-3.241Zm33.178,53.147a7.138,7.138,0,0,1-7.13,7.13h-20.74a7.137,7.137,0,0,1-7.129-7.13v-.648h6.661a3.241,3.241,0,0,0,0-6.481h-6.661V173.3h6.661a3.241,3.241,0,0,0,0-6.481h-6.661v-7.778h6.661a3.241,3.241,0,0,0,0-6.481h-6.661v-.648a7.137,7.137,0,0,1,7.129-7.129h20.74a7.138,7.138,0,0,1,7.13,7.129Z" transform="translate(-246.039 -75.961)"/><path class="c" d="M257.1,447.42a3.242,3.242,0,1,0,2.291.95A3.264,3.264,0,0,0,257.1,447.42Z" transform="translate(-171.591 -302.425)"/></g><g class="d" transform="translate(4.999 3.734)"><g transform="translate(0)"><path class="e" d="M51.2,0A51.261,51.261,0,0,0,0,51.2V114.72a51.219,51.219,0,0,0,75.39,45.141,3.241,3.241,0,0,0-3.066-5.71,44.839,44.839,0,0,1-25.74,5.054A77.481,77.481,0,0,1,69.418,105.4L95.924,78.893V114.72a44.242,44.242,0,0,1-4.81,20.2,3.241,3.241,0,1,0,5.78,2.932,50.667,50.667,0,0,0,5.511-23.13V51.2A51.261,51.261,0,0,0,51.2,0ZM15.47,95.33a71.053,71.053,0,0,0,35.5,23.745,85.137,85.137,0,0,0-7.844,19.011A63.1,63.1,0,0,1,6.481,81.081v-.342A70.278,70.278,0,0,0,15.47,95.33ZM6.481,114.72v-4.369a69.407,69.407,0,0,0,35.139,34.162,84.2,84.2,0,0,0-1.494,13.54A44.8,44.8,0,0,1,6.481,114.72Zm58.354-13.9a84.429,84.429,0,0,0-10.321,12.516A63.882,63.882,0,0,1,18.205,88.309a41.772,41.772,0,0,1,10.255-9.677,35.576,35.576,0,0,0,45.479,0A41.214,41.214,0,0,1,81.052,84.6ZM51.2,22.037a3.943,3.943,0,1,1,0,7.886,3.241,3.241,0,0,0,0,6.481,10.43,10.43,0,0,0,10.213-12.52A29.166,29.166,0,1,1,51.2,22.037ZM95.924,69.749c-.078.064-.154.132-.227.2L85.641,80.009a47.672,47.672,0,0,0-7.03-6.039,35.647,35.647,0,1,0-54.815,0,48.363,48.363,0,0,0-9.246,8.522A64.268,64.268,0,0,1,6.481,51.2a44.721,44.721,0,1,1,89.443,0Z" transform="translate(0)"/><path class="e" d="M142.967,197.106a8.823,8.823,0,0,0,6.258-2.588,3.241,3.241,0,1,0-4.583-4.583,2.37,2.37,0,0,1-3.35,0,3.241,3.241,0,1,0-4.583,4.583A8.824,8.824,0,0,0,142.967,197.106Z" transform="translate(-91.765 -127.741)"/><path class="e" d="M114.781,143.021a3.242,3.242,0,1,0-2.291-.949A3.25,3.25,0,0,0,114.781,143.021Z" transform="translate(-75.393 -92.292)"/><path class="e" d="M187.7,143.021a3.242,3.242,0,1,0-2.291-.949A3.265,3.265,0,0,0,187.7,143.021Z" transform="translate(-124.682 -92.292)"/><path class="e" d="M408.406,142.753a6.371,6.371,0,0,0,1.735-4.368v-3.32a9.733,9.733,0,0,0-9.722-9.722H397.7v-3.085a9.765,9.765,0,0,0-9.371-9.871,9.722,9.722,0,0,0-10.073,9.716v3.241h-2.716a9.733,9.733,0,0,0-9.722,9.722v3.32a6.371,6.371,0,0,0,1.735,4.368A13.556,13.556,0,0,0,364,151.916v36.3a13.626,13.626,0,0,0,13.611,13.611h20.74a13.626,13.626,0,0,0,13.611-13.611v-36.3A13.556,13.556,0,0,0,408.406,142.753Zm-36.1-7.688a3.244,3.244,0,0,1,3.241-3.241h2.816a6.388,6.388,0,0,0,6.381-6.381V122.1a3.241,3.241,0,0,1,3.362-3.238,3.349,3.349,0,0,1,3.12,3.394v3.186a6.388,6.388,0,0,0,6.381,6.381h2.816a3.244,3.244,0,0,1,3.241,3.241v3.241H372.3v-3.241Zm33.178,53.147a7.138,7.138,0,0,1-7.13,7.13h-20.74a7.137,7.137,0,0,1-7.129-7.13v-.648h6.661a3.241,3.241,0,0,0,0-6.481h-6.661V173.3h6.661a3.241,3.241,0,0,0,0-6.481h-6.661v-7.778h6.661a3.241,3.241,0,0,0,0-6.481h-6.661v-.648a7.137,7.137,0,0,1,7.129-7.129h20.74a7.138,7.138,0,0,1,7.13,7.129Z" transform="translate(-246.039 -75.961)"/><path class="e" d="M257.1,447.42a3.242,3.242,0,1,0,2.291.95A3.264,3.264,0,0,0,257.1,447.42Z" transform="translate(-171.591 -302.425)"/></g></g></svg>