<svg xmlns="http://www.w3.org/2000/svg" width="200" height="198" viewBox="0 0 200 198">
  <g id="Group_1947" data-name="Group 1947" transform="translate(-182 -154)">
    <rect id="Rectangle_140" data-name="Rectangle 140" width="200" height="198" rx="10" transform="translate(182 154)" fill="#eff4fe"/>
    <g id="photo_2_" data-name="photo (2)" transform="translate(260 210)">
      <g id="Group_221" data-name="Group 221" transform="translate(0 24)">
        <g id="Group_220" data-name="Group 220">
          <circle id="Ellipse_37" data-name="Ellipse 37" cx="2.955" cy="2.955" r="2.955" transform="translate(13.255 9.397)" fill="#8ba9ee"/>
          <path id="Path_485" data-name="Path 485" d="M40.461,47.226a9.1,9.1,0,0,0-5.088-2.421V29.786a5.908,5.908,0,0,0-1.682-4.1A5.734,5.734,0,0,0,29.587,24H5.786a5.908,5.908,0,0,0-4.1,1.682A5.734,5.734,0,0,0,0,29.786v24.5a5.908,5.908,0,0,0,1.682,4.1,5.734,5.734,0,0,0,4.1,1.682H28.807A8.682,8.682,0,0,0,40.461,47.226ZM2.175,29.786a3.643,3.643,0,0,1,3.611-3.611h23.8A3.643,3.643,0,0,1,33.2,29.786v12.8l-6.073-6.032a1.1,1.1,0,0,0-1.559,0l-9.151,9.192-6.2-6.237a1.1,1.1,0,0,0-1.559,0L2.175,46.077Zm3.57,28.151V57.9A3.6,3.6,0,0,1,3.2,56.829a3.745,3.745,0,0,1-1.026-2.544V49.155l7.3-7.3,6.2,6.2a1.141,1.141,0,0,0,1.559,0l9.151-9.192,5.991,6.032-.369.123a3.81,3.81,0,0,0-.533.164c-.164.041-.328.123-.492.164a1.229,1.229,0,0,0-.328.164,3.813,3.813,0,0,0-.41.205l-.616.369c-.123.082-.205.123-.328.205-.082.041-.123.082-.205.123a4.951,4.951,0,0,0-.985.862,8.681,8.681,0,0,0-2.544,6.155,9.021,9.021,0,0,0,.205,1.806c.041.164.082.287.123.451.123.41.246.821.41,1.231v.041a7.527,7.527,0,0,0,.533.985Zm33.116.041a6.491,6.491,0,0,1-9.069.082c-.164-.164-.328-.369-.492-.533-.123-.123-.246-.287-.369-.41a3.9,3.9,0,0,1-.41-.7c-.082-.164-.164-.287-.246-.451a3.466,3.466,0,0,1-.205-.7c-.041-.164-.123-.369-.164-.533a6.792,6.792,0,0,1-.123-1.313,6.587,6.587,0,0,1,1.888-4.6,6.414,6.414,0,0,1,4.6-1.888,6.587,6.587,0,0,1,4.6,1.888,6.344,6.344,0,0,1,1.888,4.6A6.563,6.563,0,0,1,38.861,57.978Z" transform="translate(0 -24)" fill="#8ba9ee"/>
          <path id="Path_486" data-name="Path 486" d="M295.93,268.011h-2.5v-2.5a1.108,1.108,0,0,0-2.216,0v2.5h-2.5a1.108,1.108,0,1,0,0,2.216h2.5v2.5a1.108,1.108,0,1,0,2.216,0v-2.5h2.5a1.108,1.108,0,1,0,0-2.216Z" transform="translate(-258.095 -239.737)" fill="#8ba9ee"/>
        </g>
      </g>
    </g>
  </g>
</svg>
