<svg xmlns="http://www.w3.org/2000/svg" xmlns:xlink="http://www.w3.org/1999/xlink" width="131.419" height="115.658" viewBox="0 0 131.419 115.658"><defs><style>.a{fill:url(#a);}.b{fill:#84a1e2;opacity:0.3;}</style><linearGradient id="a" x1="1.068" y1="1.032" x2="0.265" y2="0.119" gradientUnits="objectBoundingBox"><stop offset="0" stop-color="#d9eafd"/><stop offset="1" stop-color="#8ba9ee"/></linearGradient></defs><g transform="translate(-540.291 -2310.342)"><path class="a" d="M582.951,163.155c-6.744-12.571-18.062-20.452-29.538-20.57l-.274,0c-8.027,0-19.384,3.61-29.9,19.8-10.514-16.194-21.87-19.8-29.9-19.8l-.274,0c-11.475.117-22.794,8-29.538,20.57s-9.821,32.343,1.751,50.17c10.6,16.326,29.123,30.807,56.636,44.27l1.322.647,1.322-.647c27.514-13.463,46.039-27.944,56.637-44.27C592.772,195.5,589.692,175.719,582.951,163.155Zm-34.375,42.9a2.751,2.751,0,0,1-2.751,2.752H531.5v14.328a2.751,2.751,0,0,1-2.752,2.751H517.74a2.751,2.751,0,0,1-2.752-2.751V208.808H500.66a2.752,2.752,0,0,1-2.751-2.752V195.052a2.752,2.752,0,0,1,2.751-2.752h14.328V177.972a2.751,2.751,0,0,1,2.752-2.751h11.005a2.751,2.751,0,0,1,2.752,2.751V190l.027,2.3h14.3a2.751,2.751,0,0,1,2.751,2.752Z" transform="translate(82.757 2167.759)"/><path class="b" d="M521.1,256.281c-8.112-5.147-14.723-12.316-20.92-19.657-6.8-8.051-13.264-16.481-17.994-25.9q-1.088-2.166-2.06-4.428c-3.643-8.507-5.848-17.91-4.84-27.1,1.554-14.181,10.595-27.58,21.957-35.917.157-.115.318-.224.476-.337a26.847,26.847,0,0,0-4.376-.363l-.274,0c-11.475.117-22.794,8-29.538,20.57s-9.821,32.343,1.751,50.17c10.6,16.326,29.123,30.807,56.636,44.27l1.322.647.655-.321Q522.472,257.148,521.1,256.281Z" transform="translate(82.757 2167.759)"/></g></svg>