<svg xmlns="http://www.w3.org/2000/svg" width="158.787" height="178.064" viewBox="0 0 158.787 178.064"><defs><style>.a{fill:#bbcffe;stroke:#707070;}.b{fill:#ffeb9e;}.c{fill:#462847;}.d{opacity:0.18;}.e{fill:#585858;}</style></defs><g transform="translate(0 0)"><path class="a" d="M492.547,1987.1c5.135,5.162,17.444-1.558,17.444-1.558s-.623-30.528,4.05-33.02,13.395-13.083,24.3-7.788,30.839,20.56,42.053,18.69,15.887-1.869,26.789-10.9,22.74-19.936,25.855-27.413,13.706-42.053-1.558-56.383c-9.968-11.214-17.444-19.937-29.282-21.806s-15.887-3.427-21.805-12.771-5.3-14.33-6.23-14.33H554.536s4.673,30.216,25.855,40.184c-12.772,8.1-17.133,15.887-17.756,24.3s1.558,26.478-1.557,28.97-17.133,12.772-32.085,11.837-36.758,22.74-36.446,24.921S487.411,1981.942,492.547,1987.1Z" transform="translate(-486.103 -1816.434)"/><path class="b" d="M582.533,1914.362c4.05.934,15.264,5.918,16.2,5.918s25.232-3.115,25.232-3.115l-3.738,9.969s-16.51,25.855-35.2,24.3c-13.083-1.246-15.887-1.869-17.133-7.476S578.484,1913.427,582.533,1914.362Z" transform="translate(-491.707 -1818.411)"/><g transform="translate(0 0)"><path class="c" d="M2134.38-914.777c-1.131-.981-1.864-1.67-2.65-2.292-11.834-9.37-16.943-21.962-17.485-36.689-.159-4.318.92-5.333,5.157-5.362,5.452-.037,10.906.086,16.356-.045,3.388-.081,5.031,1.193,5.109,4.721.229,10.339,5.565,16.96,15.216,20.256,4.417,1.509,8.883,2.88,13.3,4.383,22.107,7.52,37.029,29.578,34.762,52.835-2.542,26.1-15.51,46.545-37.679,60.053-18.455,11.245-37.092,7.71-54.6-3.839-3.559-2.348-7.09-4.9-10.979-6.547-8.9-3.765-18.273-.319-23.029,8.128-4.586,8.144-4.369,16.967-3.027,25.8,1.329,8.743,1.41,8.806-7.379,8.806-4.8,0-9.627.241-14.4-.148-1.5-.122-3.917-1.76-4.128-3.006-3.251-19.127-1.609-37.407,11.42-52.946,8.662-10.332,20.266-14.977,33.618-15.521a100.757,100.757,0,0,0,12.408-.766c8.759-1.459,14.437-8.114,14.9-16.968a67.594,67.594,0,0,0-.013-7.784C2120.43-894.715,2122.079-906.748,2134.38-914.777Zm-67.258,123.019c.446-7.533.118-14.885,1.457-21.918,2.934-15.412,16.722-24.936,30.852-21.22,5.466,1.437,10.743,4.587,15.4,7.942,17.6,12.693,38.547,13.152,54.805-.15,13.719-11.226,23.138-25.6,26.949-43.114,4.556-20.944-5.65-42.312-24.448-51.108-5.6-2.621-11.758-4.052-17.628-6.115-10.812-3.8-18.328-10.562-20.17-22.477-.13-.841-1.232-2.137-1.947-2.181-3.586-.225-7.194-.1-11.074-.1.843,14.4,6.94,25.2,18.781,32.648,6.058,3.813,6.186,5.429.189,8.995-8.336,4.955-12.585,12.071-12.271,21.859.158,4.929.34,9.873.142,14.794-.385,9.6-4.679,17.188-13.456,21.17-4.579,2.077-9.935,2.608-15.009,3.38-4.977.758-10.211.272-15.043,1.484-22.113,5.542-36.261,33.143-29.075,56.113Z" transform="translate(-2047.495 959.168)"/><path class="c" d="M2161.9-854.527c3.588,1.587,6.55,3.351,9.755,4.183a28.678,28.678,0,0,0,9.431.729c6.617-.552,13.2-1.573,20.614-2.505,4.763-8.655,3.151-24.366-4.312-33.251-1.658-1.975-3.093-3.9-.55-5.942,2.482-1.991,4.416-.24,5.919,1.671,7.932,10.086,9.973,21.612,7.186,33.839-3.554,15.6-12.215,28.276-24.383,38.431-9.42,7.861-20.444,9.725-32.261,6.776-6.118-1.527-11.153-4.724-12.9-11.144-1.719-6.313,1.036-11.315,5.614-15.6A27.532,27.532,0,0,0,2155-857.006c.184-4.925,0-9.862.041-14.793.074-8.59,4.059-14.81,11.524-18.925,2.147-1.183,4.257-1.79,5.693.788,1.313,2.355-.04,4-2.1,5.037-6.391,3.219-8.518,8.616-8.3,15.424C2162.03-864.428,2161.9-859.371,2161.9-854.527Zm36.139,9.311c-5.8.864-10.89,1.375-15.865,2.43a20.791,20.791,0,0,1-15.384-2.134,31.149,31.149,0,0,0-3.16-1.489c-2.132-.932-3.3-.415-4.564,1.821a64.405,64.405,0,0,1-8.286,12.063c-6.158,6.677-4.773,12.757,3.989,15.245a25.99,25.99,0,0,0,3.8.783C2174.094-814.513,2193.054-827.758,2198.038-845.216Z" transform="translate(-2067.891 944.381)"/><path class="c" d="M2200.27-894.162c-1.988,1.569-3.281,3.351-4.3,3.205-1.338-.193-2.457-1.9-3.671-2.958,1.146-1.153,2.149-2.948,3.485-3.246C2196.77-897.379,2198.189-895.638,2200.27-894.162Z" transform="translate(-2079.465 945.482)"/></g><g class="d" transform="translate(1.905 3.39)"><path class="e" d="M2134.38-914.777c-1.131-.981-1.864-1.67-2.65-2.292-11.834-9.37-16.943-21.962-17.485-36.689-.159-4.318.92-5.333,5.157-5.362,5.452-.037,10.906.086,16.356-.045,3.388-.081,5.031,1.193,5.109,4.721.229,10.339,5.565,16.96,15.216,20.256,4.417,1.509,8.883,2.88,13.3,4.383,22.107,7.52,37.029,29.578,34.762,52.835-2.542,26.1-15.51,46.545-37.679,60.053-18.455,11.245-37.092,7.71-54.6-3.839-3.559-2.348-7.09-4.9-10.979-6.547-8.9-3.765-18.273-.319-23.029,8.128-4.586,8.144-4.369,16.967-3.027,25.8,1.329,8.743,1.41,8.806-7.379,8.806-4.8,0-9.627.241-14.4-.148-1.5-.122-3.917-1.76-4.128-3.006-3.251-19.127-1.609-37.407,11.42-52.946,8.662-10.332,20.266-14.977,33.618-15.521a100.757,100.757,0,0,0,12.408-.766c8.759-1.459,14.437-8.114,14.9-16.968a67.594,67.594,0,0,0-.013-7.784C2120.43-894.715,2122.079-906.748,2134.38-914.777Zm-67.258,123.019c.446-7.533.118-14.885,1.457-21.918,2.934-15.412,16.722-24.936,30.852-21.22,5.466,1.437,10.743,4.587,15.4,7.942,17.6,12.693,38.547,13.152,54.805-.15,13.719-11.226,23.138-25.6,26.949-43.114,4.556-20.944-5.65-42.312-24.448-51.108-5.6-2.621-11.758-4.052-17.628-6.115-10.812-3.8-18.328-10.562-20.17-22.477-.13-.841-1.232-2.137-1.947-2.181-3.586-.225-7.194-.1-11.074-.1.843,14.4,6.94,25.2,18.781,32.648,6.058,3.813,6.186,5.429.189,8.995-8.336,4.955-12.585,12.071-12.271,21.859.158,4.929.34,9.873.142,14.794-.385,9.6-4.679,17.188-13.456,21.17-4.579,2.077-9.935,2.608-15.009,3.38-4.977.758-10.211.272-15.043,1.484-22.113,5.542-36.261,33.143-29.075,56.113Z" transform="translate(-2047.495 959.168)"/><path class="e" d="M2161.9-854.527c3.588,1.587,6.55,3.351,9.755,4.183a28.678,28.678,0,0,0,9.431.729c6.617-.552,13.2-1.573,20.614-2.505,4.763-8.655,3.151-24.366-4.312-33.251-1.658-1.975-3.093-3.9-.55-5.942,2.482-1.991,4.416-.24,5.919,1.671,7.932,10.086,9.973,21.612,7.186,33.839-3.554,15.6-12.215,28.276-24.383,38.431-9.42,7.861-20.444,9.725-32.261,6.776-6.118-1.527-11.153-4.724-12.9-11.144-1.719-6.313,1.036-11.315,5.614-15.6A27.532,27.532,0,0,0,2155-857.006c.184-4.925,0-9.862.041-14.793.074-8.59,4.059-14.81,11.524-18.925,2.147-1.183,4.257-1.79,5.693.788,1.313,2.355-.04,4-2.1,5.037-6.391,3.219-8.518,8.616-8.3,15.424C2162.03-864.428,2161.9-859.371,2161.9-854.527Zm36.139,9.311c-5.8.864-10.89,1.375-15.865,2.43a20.791,20.791,0,0,1-15.384-2.134,31.149,31.149,0,0,0-3.16-1.489c-2.132-.932-3.3-.415-4.564,1.821a64.405,64.405,0,0,1-8.286,12.063c-6.158,6.677-4.773,12.757,3.989,15.245a25.99,25.99,0,0,0,3.8.783C2174.094-814.513,2193.054-827.758,2198.038-845.216Z" transform="translate(-2067.891 944.381)"/><path class="e" d="M2200.27-894.162c-1.988,1.569-3.281,3.351-4.3,3.205-1.338-.193-2.457-1.9-3.671-2.958,1.146-1.153,2.149-2.948,3.485-3.246C2196.77-897.379,2198.189-895.638,2200.27-894.162Z" transform="translate(-2079.465 945.482)"/></g></g></svg>