<svg xmlns="http://www.w3.org/2000/svg" width="172.704" height="189.042" viewBox="0 0 172.704 189.042"><defs><style>.a{fill:#ffeb9e;}.b{fill:#bbcffe;}.c{fill:#462847;}.d{opacity:0.18;}.e{fill:#585858;}</style></defs><path class="a" d="M1157.418,1330.408c4.218-.281,38.8-5.9,38.8-5.9l20.245,9.841s3.374-15.746-3.656-19.4-18-17.433-32.335-12.091-20.244,7.03-20.244,7.03-6.186-.844-7.311,0-14.9,13.215-13.5,28.68,1.125,39.083,1.125,39.083,29.8-7.592,30.367-14.34a38.429,38.429,0,0,1-8.716-7.029S1153.2,1330.689,1157.418,1330.408Z" transform="translate(-1112.907 -1300.187)"/><path class="b" d="M1153.751,1375.842c.5,0,12.977-2.5,12.977-2.5s.832,8.319,1.664,8.652,18.3,5.49,18.3,5.49l17.8-5.49,2.163-10.648,6.988,4.492s4.159,26.62,2.662,29.116-5.99,8.651-11.813,7.986-45.254-1.331-45.753-1.331-6.323-4.492-5.823-8.818S1153.751,1375.842,1153.751,1375.842Z" transform="translate(-1111.314 -1292.004)"/><path class="b" d="M1218.738,1339.188h12.478l-1.664,17.969s-10.648.333-10.814,0S1218.738,1339.188,1218.738,1339.188Z" transform="translate(-1103.594 -1295.779)"/><path class="b" d="M1253.721,1340.669l13.476-1.331-1,18.135h-12.478Z" transform="translate(-1099.478 -1295.761)"/><path class="b" d="M1152.889,1435.638s14.273-.745,14.057,0,0,17.616,0,17.616-12.545.649-12.545,0S1152.889,1435.638,1152.889,1435.638Z" transform="translate(-1111.314 -1284.496)"/><g transform="translate(0)"><g transform="translate(0 0)"><path class="c" d="M186.112,39.985H173.807a3.076,3.076,0,0,0-3.076,3.076v3.076a3.076,3.076,0,0,0-3.076-3.076h-9.229a3.076,3.076,0,0,0-3.076,2.873l-.212,3.279H149.2V43.062a3.076,3.076,0,0,0-3.076-3.076H133.815a3.076,3.076,0,0,0-3.076,3.076V61.52a3.076,3.076,0,0,0,3.076,3.076H146.12A3.076,3.076,0,0,0,149.2,61.52V55.367h5.537l-1.68,25.167a6.124,6.124,0,0,1-6.134,5.6H127.662V84.81a3.077,3.077,0,0,0-1.76-2.769,49.523,49.523,0,0,0-13.124-4.03,3.058,3.058,0,0,0-1.464.148,30.263,30.263,0,0,0-5.187-1.1V68.672a25.64,25.64,0,0,0,2.646-1.56c10.336-7.232,18.889-14.5,18.889-30.126V33.833A33.938,33.938,0,0,0,73.537,6.595,24.583,24.583,0,0,0,44.6,30.756V76.9a3.076,3.076,0,0,0,3.076,3.076A45.6,45.6,0,0,0,79.259,67.343a25.741,25.741,0,0,0,2.258,1.329v8.392a30.254,30.254,0,0,0-5.19,1.083A3.055,3.055,0,0,0,74.866,78a49.522,49.522,0,0,0-13.124,4.03,3.077,3.077,0,0,0-1.76,2.769v.1a72.968,72.968,0,0,0-18.458,47.375c0,8.438.4,18.15,2.9,24.611H38.449v-6.153a3.076,3.076,0,0,0-3.076-3.076H23.067a3.076,3.076,0,0,0-3.076,3.076v18.458a3.076,3.076,0,0,0,3.076,3.076H35.373a3.076,3.076,0,0,0,3.076-3.076v-6.153H56.036a47.068,47.068,0,0,0-5.282,21.534h6.153a40.818,40.818,0,0,1,3.076-15.425v.043a3.076,3.076,0,0,0,3.076,3.076H75.365a3.076,3.076,0,0,0,3.076-3.076V156.886h38.516l1.772,2.215a40.916,40.916,0,0,1,8.934,25.472h6.153a47.091,47.091,0,0,0-10.284-29.314l-2.353-2.941L120,148.773a38.392,38.392,0,0,1,.772-26.361l.172-.431a9.61,9.61,0,0,0,6.722-8.626v-.126l33.344-7.143a12.373,12.373,0,0,0,9.724-12.035V61.52a3.076,3.076,0,0,0,3.076,3.076h12.305a3.076,3.076,0,0,0,3.076-3.076V43.062A3.076,3.076,0,0,0,186.112,39.985ZM143.044,58.443h-6.153V46.138h6.153ZM32.3,166.115H26.144V153.809H32.3Zm23.838-10.527.215,1.307H51.243c-1.757-2.446-3.565-8.8-3.565-24.62A68.241,68.241,0,0,1,59.983,94.452v18.683C55.926,122.326,54.578,146.242,56.135,155.587ZM91.977,6.2A27.653,27.653,0,0,1,121.264,30.27l-16.837-8.42a3.052,3.052,0,0,0-1.91-.277L66.776,27.88A27.305,27.305,0,0,1,91.977,6.2Zm-41.223,67.5V30.756A18.476,18.476,0,0,1,67.508,12.384a33.841,33.841,0,0,0-7.525,21.448v3.153c0,13.2,6.107,20.424,14.225,26.712A39.456,39.456,0,0,1,50.754,73.708ZM66.136,36.986V34.242l36.451-6.433,18.907,9.454c-.089,11.456-5.322,17.16-16.246,24.811a20,20,0,0,1-22.851,0C71.381,54.358,66.136,48.639,66.136,36.986Zm12.305,46.9a23.44,23.44,0,0,1,6.153-.834,3.076,3.076,0,0,0,3.076-3.076V71a23.925,23.925,0,0,0,12.305,0v8.974a3.076,3.076,0,0,0,3.076,3.076,23.441,23.441,0,0,1,6.153.834V88.81L93.823,92.117,78.441,88.81ZM61.7,148a129.083,129.083,0,0,1,2.372-27.419,12.58,12.58,0,0,0,2.572,1.369,38.081,38.081,0,0,1,.378,25.7H63.06A3,3,0,0,0,61.7,148Zm10.586,18.11H66.136V153.809h6.153Zm6.153-15.382a3.076,3.076,0,0,0-3.076-3.076H73.519a44.228,44.228,0,0,0,0-24.611H114a44.565,44.565,0,0,0,.157,27.687Zm43.069-37.377c0,1.67-2.63,3.538-6.153,3.538H72.288c-3.522,0-6.153-1.867-6.153-3.538V86.813A42.666,42.666,0,0,1,72.288,84.8v6.5a3.076,3.076,0,0,0,2.43,3.009l18.458,3.972a3.025,3.025,0,0,0,1.292,0l18.458-3.972a3.076,3.076,0,0,0,2.43-3.009V84.8a42.67,42.67,0,0,1,6.153,2.009Zm38.2-13.287-32.052,6.866V92.283H146.92a12.265,12.265,0,0,0,12.262-11.265l2.123-31.8h3.273V94.052h0A6.183,6.183,0,0,1,159.714,100.069Zm23.322-41.626h-6.153V46.138h6.153Z" transform="translate(-19.991 0)"/></g></g><g class="d" transform="translate(3.506 4.47)"><g transform="translate(0 0)"><path class="e" d="M186.112,39.985H173.807a3.076,3.076,0,0,0-3.076,3.076v3.076a3.076,3.076,0,0,0-3.076-3.076h-9.229a3.076,3.076,0,0,0-3.076,2.873l-.212,3.279H149.2V43.062a3.076,3.076,0,0,0-3.076-3.076H133.815a3.076,3.076,0,0,0-3.076,3.076V61.52a3.076,3.076,0,0,0,3.076,3.076H146.12A3.076,3.076,0,0,0,149.2,61.52V55.367h5.537l-1.68,25.167a6.124,6.124,0,0,1-6.134,5.6H127.662V84.81a3.077,3.077,0,0,0-1.76-2.769,49.523,49.523,0,0,0-13.124-4.03,3.058,3.058,0,0,0-1.464.148,30.263,30.263,0,0,0-5.187-1.1V68.672a25.64,25.64,0,0,0,2.646-1.56c10.336-7.232,18.889-14.5,18.889-30.126V33.833A33.938,33.938,0,0,0,73.537,6.595,24.583,24.583,0,0,0,44.6,30.756V76.9a3.076,3.076,0,0,0,3.076,3.076A45.6,45.6,0,0,0,79.259,67.343a25.741,25.741,0,0,0,2.258,1.329v8.392a30.254,30.254,0,0,0-5.19,1.083A3.055,3.055,0,0,0,74.866,78a49.522,49.522,0,0,0-13.124,4.03,3.077,3.077,0,0,0-1.76,2.769v.1a72.968,72.968,0,0,0-18.458,47.375c0,8.438.4,18.15,2.9,24.611H38.449v-6.153a3.076,3.076,0,0,0-3.076-3.076H23.067a3.076,3.076,0,0,0-3.076,3.076v18.458a3.076,3.076,0,0,0,3.076,3.076H35.373a3.076,3.076,0,0,0,3.076-3.076v-6.153H56.036a47.068,47.068,0,0,0-5.282,21.534h6.153a40.818,40.818,0,0,1,3.076-15.425v.043a3.076,3.076,0,0,0,3.076,3.076H75.365a3.076,3.076,0,0,0,3.076-3.076V156.886h38.516l1.772,2.215a40.916,40.916,0,0,1,8.934,25.472h6.153a47.091,47.091,0,0,0-10.284-29.314l-2.353-2.941L120,148.773a38.392,38.392,0,0,1,.772-26.361l.172-.431a9.61,9.61,0,0,0,6.722-8.626v-.126l33.344-7.143a12.373,12.373,0,0,0,9.724-12.035V61.52a3.076,3.076,0,0,0,3.076,3.076h12.305a3.076,3.076,0,0,0,3.076-3.076V43.062A3.076,3.076,0,0,0,186.112,39.985ZM143.044,58.443h-6.153V46.138h6.153ZM32.3,166.115H26.144V153.809H32.3Zm23.838-10.527.215,1.307H51.243c-1.757-2.446-3.565-8.8-3.565-24.62A68.241,68.241,0,0,1,59.983,94.452v18.683C55.926,122.326,54.578,146.242,56.135,155.587ZM91.977,6.2A27.653,27.653,0,0,1,121.264,30.27l-16.837-8.42a3.052,3.052,0,0,0-1.91-.277L66.776,27.88A27.305,27.305,0,0,1,91.977,6.2Zm-41.223,67.5V30.756A18.476,18.476,0,0,1,67.508,12.384a33.841,33.841,0,0,0-7.525,21.448v3.153c0,13.2,6.107,20.424,14.225,26.712A39.456,39.456,0,0,1,50.754,73.708ZM66.136,36.986V34.242l36.451-6.433,18.907,9.454c-.089,11.456-5.322,17.16-16.246,24.811a20,20,0,0,1-22.851,0C71.381,54.358,66.136,48.639,66.136,36.986Zm12.305,46.9a23.44,23.44,0,0,1,6.153-.834,3.076,3.076,0,0,0,3.076-3.076V71a23.925,23.925,0,0,0,12.305,0v8.974a3.076,3.076,0,0,0,3.076,3.076,23.441,23.441,0,0,1,6.153.834V88.81L93.823,92.117,78.441,88.81ZM61.7,148a129.083,129.083,0,0,1,2.372-27.419,12.58,12.58,0,0,0,2.572,1.369,38.081,38.081,0,0,1,.378,25.7H63.06A3,3,0,0,0,61.7,148Zm10.586,18.11H66.136V153.809h6.153Zm6.153-15.382a3.076,3.076,0,0,0-3.076-3.076H73.519a44.228,44.228,0,0,0,0-24.611H114a44.565,44.565,0,0,0,.157,27.687Zm43.069-37.377c0,1.67-2.63,3.538-6.153,3.538H72.288c-3.522,0-6.153-1.867-6.153-3.538V86.813A42.666,42.666,0,0,1,72.288,84.8v6.5a3.076,3.076,0,0,0,2.43,3.009l18.458,3.972a3.025,3.025,0,0,0,1.292,0l18.458-3.972a3.076,3.076,0,0,0,2.43-3.009V84.8a42.67,42.67,0,0,1,6.153,2.009Zm38.2-13.287-32.052,6.866V92.283H146.92a12.265,12.265,0,0,0,12.262-11.265l2.123-31.8h3.273V94.052h0A6.183,6.183,0,0,1,159.714,100.069Zm23.322-41.626h-6.153V46.138h6.153Z" transform="translate(-19.991 0)"/></g></g></svg>