<svg xmlns="http://www.w3.org/2000/svg" xmlns:xlink="http://www.w3.org/1999/xlink" width="115.658" height="115.658" viewBox="0 0 115.658 115.658"><defs><style>.a{fill:url(#a);}.b{fill:#fff;opacity:0.3;}</style><linearGradient id="a" x1="0.5" x2="0.5" y2="1" gradientUnits="objectBoundingBox"><stop offset="0" stop-color="#9cb5f1"/><stop offset="1" stop-color="#8ba9ee"/></linearGradient></defs><g transform="translate(-470.166 -791.463)"><path class="a" d="M533.017,791.463a62.851,62.851,0,0,0-62.851,62.852v52.806h52.806a62.852,62.852,0,0,0,62.852-62.851V791.463Zm21.517,66.476H536.642v17.893H519.348V857.939H501.455V840.645h17.892V822.752h17.294l.029,17.893h17.864Z"/><path class="b" d="M470.166,854.315v52.806h0l49.182-49.182H501.455V840.645h17.892V822.752h17.294l.028,17.865,49.154-49.154H533.017A62.851,62.851,0,0,0,470.166,854.315Z"/></g></svg>