<svg xmlns="http://www.w3.org/2000/svg" width="15.241" height="17.34" viewBox="0 0 15.241 17.34">
  <g id="headphones" transform="translate(-31)">
    <g id="Group_1878" data-name="Group 1878" transform="translate(33.032 7.112)">
      <g id="Group_1877" data-name="Group 1877">
        <path id="Path_580" data-name="Path 580" d="M92.524,210A1.526,1.526,0,0,0,91,211.524v4.132a1.524,1.524,0,1,0,3.048,0v-4.132A1.526,1.526,0,0,0,92.524,210Z" transform="translate(-91 -210)" fill="#8ba9ee"/>
      </g>
    </g>
    <g id="Group_1880" data-name="Group 1880" transform="translate(31 8.208)">
      <g id="Group_1879" data-name="Group 1879">
        <path id="Path_581" data-name="Path 581" d="M32.016,242.794a2.52,2.52,0,0,1,.043-.428A1.521,1.521,0,0,0,31,243.81v2.1a1.521,1.521,0,0,0,1.059,1.444,2.52,2.52,0,0,1-.043-.428Z" transform="translate(-31 -242.366)" fill="#8ba9ee"/>
      </g>
    </g>
    <g id="Group_1882" data-name="Group 1882" transform="translate(37.096 7.112)">
      <g id="Group_1881" data-name="Group 1881">
        <path id="Path_582" data-name="Path 582" d="M216.588,210a1.526,1.526,0,0,0-1.524,1.524v4.132a1.526,1.526,0,0,0,1.524,1.524,1.5,1.5,0,0,0,.437-.071,1.521,1.521,0,0,1-1.453,1.087h-1.618a1.524,1.524,0,1,0,0,1.016h1.618a2.543,2.543,0,0,0,2.54-2.54v-5.148A1.526,1.526,0,0,0,216.588,210Z" transform="translate(-211 -210)" fill="#8ba9ee"/>
      </g>
    </g>
    <g id="Group_1884" data-name="Group 1884" transform="translate(45.181 8.208)">
      <g id="Group_1883" data-name="Group 1883">
        <path id="Path_583" data-name="Path 583" d="M449.722,242.366a2.522,2.522,0,0,1,.043.428v4.132a2.522,2.522,0,0,1-.043.428,1.521,1.521,0,0,0,1.059-1.444v-2.1A1.521,1.521,0,0,0,449.722,242.366Z" transform="translate(-449.722 -242.366)" fill="#8ba9ee"/>
      </g>
    </g>
    <g id="Group_1886" data-name="Group 1886" transform="translate(31)">
      <g id="Group_1885" data-name="Group 1885">
        <path id="Path_584" data-name="Path 584" d="M38.62,0A7.629,7.629,0,0,0,31,7.62v.013a2.516,2.516,0,0,1,1.039-.472,6.6,6.6,0,0,1,13.162,0,2.516,2.516,0,0,1,1.039.472V7.62A7.629,7.629,0,0,0,38.62,0Z" transform="translate(-31)" fill="#8ba9ee"/>
      </g>
    </g>
  </g>
</svg>
