<svg xmlns="http://www.w3.org/2000/svg" width="25.006" height="22.246" viewBox="0 0 25.006 22.246"><defs><style>.a{fill:#fed638;}</style></defs><path class="a" d="M-7101.463,15.884c-1.011-.884-1.983-1.714-2.844-2.446l0,0a53.011,53.011,0,0,1-6.208-5.828A9.3,9.3,0,0,1-7113,1.516a7.818,7.818,0,0,1,1.985-5.339,6.725,6.725,0,0,1,5-2.176,6.293,6.293,0,0,1,3.929,1.357,8.025,8.025,0,0,1,1.587,1.658,8.045,8.045,0,0,1,1.589-1.658A6.291,6.291,0,0,1-7094.98-6a6.726,6.726,0,0,1,5,2.176,7.819,7.819,0,0,1,1.983,5.339,9.3,9.3,0,0,1-2.479,6.091,52.875,52.875,0,0,1-6.207,5.827c-.862.734-1.837,1.566-2.849,2.451a1.468,1.468,0,0,1-.968.362A1.466,1.466,0,0,1-7101.463,15.884Z" transform="translate(7113.001 6)"/></svg>