<svg xmlns="http://www.w3.org/2000/svg" width="25.005" height="22.247" viewBox="0 0 25.005 22.247"><defs><style>.a{fill:#fed638;}</style></defs><path class="a" d="M12.5,22.247a1.466,1.466,0,0,1-.967-.363C10.526,21,9.552,20.17,8.693,19.438l0,0A52.879,52.879,0,0,1,2.48,13.607,9.307,9.307,0,0,1,0,7.515,7.815,7.815,0,0,1,1.984,2.177,6.724,6.724,0,0,1,6.986,0a6.29,6.29,0,0,1,3.929,1.356A8.038,8.038,0,0,1,12.5,3.015a8.039,8.039,0,0,1,1.589-1.659A6.29,6.29,0,0,1,18.02,0a6.724,6.724,0,0,1,5,2.177,7.815,7.815,0,0,1,1.984,5.338,9.306,9.306,0,0,1-2.48,6.092,52.874,52.874,0,0,1-6.208,5.827c-.861.733-1.836,1.565-2.849,2.45a1.467,1.467,0,0,1-.966.363ZM6.986,1.465A5.275,5.275,0,0,0,3.06,3.17a6.358,6.358,0,0,0-1.6,4.345,7.831,7.831,0,0,0,2.143,5.158,52.037,52.037,0,0,0,6.03,5.647l0,0c.863.735,1.84,1.568,2.858,2.458,1.024-.891,2-1.726,2.867-2.462a52.05,52.05,0,0,0,6.03-5.647,7.832,7.832,0,0,0,2.143-5.158,6.358,6.358,0,0,0-1.6-4.345A5.275,5.275,0,0,0,18.02,1.465a4.858,4.858,0,0,0-3.033,1.05A7.108,7.108,0,0,0,13.3,4.471a.925.925,0,0,1-1.588,0,7.1,7.1,0,0,0-1.69-1.956,4.858,4.858,0,0,0-3.033-1.05Zm0,0" transform="translate(0 0)"/></svg>