<svg id="play-button" xmlns="http://www.w3.org/2000/svg" width="79.294" height="79.294" viewBox="0 0 79.294 79.294">
  <g id="Group_1673" data-name="Group 1673">
    <g id="Group_1672" data-name="Group 1672">
      <path id="Path_505" data-name="Path 505" d="M39.647,0A39.647,39.647,0,1,0,79.294,39.647,39.692,39.692,0,0,0,39.647,0Zm0,75.991A36.343,36.343,0,1,1,75.991,39.647,36.384,36.384,0,0,1,39.647,75.991Z" fill="#8ba9ee"/>
      <path id="Path_506" data-name="Path 506" d="M217.673,164.462l-23.128-14.868A1.652,1.652,0,0,0,192,150.983v29.735a1.652,1.652,0,0,0,2.546,1.389l23.128-14.868a1.651,1.651,0,0,0,0-2.778ZM195.3,177.692V154.01l18.42,11.841Z" transform="translate(-162.265 -126.204)" fill="#8ba9ee"/>
    </g>
  </g>
</svg>
