<svg xmlns="http://www.w3.org/2000/svg" width="26.933" height="23.849" viewBox="0 0 26.933 23.849"><defs><style>.a{fill:#8ba9ee;}</style></defs><g transform="translate(0 0)"><circle class="a" cx="1.85" cy="1.85" r="1.85" transform="translate(8.301 5.885)"/><path class="a" d="M25.339,38.546a5.7,5.7,0,0,0-3.187-1.516V27.624a3.7,3.7,0,0,0-1.054-2.57A3.591,3.591,0,0,0,18.529,24H3.624a3.7,3.7,0,0,0-2.57,1.054A3.591,3.591,0,0,0,0,27.624V42.966a3.7,3.7,0,0,0,1.054,2.57,3.591,3.591,0,0,0,2.57,1.054H18.041a5.437,5.437,0,0,0,7.3-8.044ZM1.362,27.624a2.282,2.282,0,0,1,2.262-2.262H18.529a2.282,2.282,0,0,1,2.262,2.262v8.018l-3.8-3.778a.69.69,0,0,0-.977,0L10.28,37.621,6.4,33.714a.69.69,0,0,0-.977,0l-4.06,4.112ZM3.6,45.253v-.026A2.255,2.255,0,0,1,2,44.559a2.345,2.345,0,0,1-.642-1.593V39.754l4.574-4.574L9.817,39.06a.715.715,0,0,0,.977,0L16.525,33.3l3.752,3.778-.231.077a2.386,2.386,0,0,0-.334.1c-.1.026-.206.077-.308.1a.769.769,0,0,0-.206.1,2.387,2.387,0,0,0-.257.128l-.385.231c-.077.051-.128.077-.206.128-.051.026-.077.051-.128.077a3.1,3.1,0,0,0-.617.54,5.437,5.437,0,0,0-1.593,3.855,5.65,5.65,0,0,0,.128,1.131c.026.1.051.18.077.283.077.257.154.514.257.771v.026a4.714,4.714,0,0,0,.334.617Zm20.739.026a4.065,4.065,0,0,1-5.68.051c-.1-.1-.206-.231-.308-.334-.077-.077-.154-.18-.231-.257a2.44,2.44,0,0,1-.257-.437c-.051-.1-.1-.18-.154-.283a2.171,2.171,0,0,1-.128-.437c-.026-.1-.077-.231-.1-.334a4.254,4.254,0,0,1-.077-.822,4.125,4.125,0,0,1,1.182-2.878,4.017,4.017,0,0,1,2.878-1.182,4.125,4.125,0,0,1,2.878,1.182,3.973,3.973,0,0,1,1.182,2.878A4.11,4.11,0,0,1,24.337,45.279Z" transform="translate(0 -24)"/><path class="a" d="M292.817,266.662h-1.568v-1.568a.694.694,0,1,0-1.388,0v1.568h-1.568a.694.694,0,0,0,0,1.388h1.568v1.568a.694.694,0,1,0,1.388,0v-1.568h1.568a.694.694,0,1,0,0-1.388Z" transform="translate(-269.122 -248.955)"/></g></svg>