<svg xmlns="http://www.w3.org/2000/svg" width="58.149" height="65.417" viewBox="0 0 58.149 65.417"><defs><style>.a{fill:#8ba9ee;}</style></defs><g transform="translate(-28.445)"><g transform="translate(64.788 43.611)"><g transform="translate(0)"><path class="a" d="M323.792,341.333a10.9,10.9,0,1,0,10.9,10.9A10.915,10.915,0,0,0,323.792,341.333Zm0,19.383a8.48,8.48,0,1,1,8.48-8.48A8.489,8.489,0,0,1,323.792,360.716Z" transform="translate(-312.889 -341.333)"/></g></g><g transform="translate(69.633 48.457)"><path class="a" d="M361.717,384.106h-3.634v-3.634a1.211,1.211,0,0,0-2.423,0v3.634h-3.634a1.211,1.211,0,1,0,0,2.423h3.634v3.634a1.211,1.211,0,1,0,2.423,0v-3.634h3.634a1.211,1.211,0,1,0,0-2.423Z" transform="translate(-350.814 -379.26)"/></g><g transform="translate(28.445)"><g transform="translate(0)"><path class="a" d="M78.95,16.458,62.085.336A1.212,1.212,0,0,0,61.249,0H29.656a1.211,1.211,0,0,0-1.211,1.211V64.206a1.212,1.212,0,0,0,1.211,1.211H62.365a1.211,1.211,0,1,0,0-2.423h-31.5V2.423H59.942V18.171a1.211,1.211,0,0,0,1.211,1.211H76.9V39.977a1.211,1.211,0,0,0,2.423,0V17.334A1.211,1.211,0,0,0,78.95,16.458Zm-16.586.5V3.955L75.97,16.96Z" transform="translate(-28.445 0)"/></g></g><g transform="translate(46.616 23.017)"><path class="a" d="M188.316,191.268l-15.749-10.9a1.211,1.211,0,0,0-1.9,1v21.806a1.211,1.211,0,0,0,1.9,1l15.749-10.9a1.211,1.211,0,0,0,0-1.992Zm-15.226,9.587V183.673l12.409,8.591Z" transform="translate(-170.667 -180.15)"/></g></g></svg>