<svg xmlns="http://www.w3.org/2000/svg" width="21.555" height="15.092" viewBox="0 0 21.555 15.092"><defs><style>.a{fill:red;}.b{fill:#fff;}</style></defs><g transform="translate(0 0)"><path class="a" d="M21.111,2.362a2.7,2.7,0,0,0-1.9-1.9C17.524,0,10.777,0,10.777,0S4.03,0,2.344.444a2.756,2.756,0,0,0-1.9,1.917A28.456,28.456,0,0,0,0,7.546a28.352,28.352,0,0,0,.444,5.184,2.7,2.7,0,0,0,1.9,1.9c1.7.462,8.434.462,8.434.462s6.747,0,8.434-.444a2.7,2.7,0,0,0,1.9-1.9,28.457,28.457,0,0,0,.444-5.184,27.01,27.01,0,0,0-.444-5.2Zm0,0"/><path class="b" d="M204.969,108.947l5.611-3.231-5.611-3.231Zm0,0" transform="translate(-196.34 -98.17)"/></g></svg>